<svg id="Шар_1" data-name="Шар 1" xmlns="http://www.w3.org/2000/svg" width="206.44mm" height="206.44mm" viewBox="0 0 585.19 585.19"><defs><style>.cls-1{fill:#fff;}.cls-2{fill:#003a27;}.cls-3{fill:#103e35;}</style></defs><title>фейс тінь</title><circle class="cls-1" cx="292.6" cy="292.6" r="292.6"/><circle class="cls-2" cx="292.6" cy="292.6" r="272.41"/><g id="Фейс"><path class="cls-3" d="M609.52,311.55,509,215.2,435,256.66,408.83,359.13V613.56l29.35-9.34C468.13,592,533.23,560.28,573.6,491.89a280.4,280.4,0,0,0,28.54-69.46A292.38,292.38,0,0,0,609.52,311.55Z" transform="translate(-46.8 -57.16)"/><path class="cls-3" d="M389.55,229.77,71.37,394.27c4.69,28.53,17.22,78.28,55.1,125.41C206.17,618.85,330.2,622,349.59,622.17l28.6-22.7,29.62-102.13L415,330.87Z" transform="translate(-46.8 -57.16)"/><path class="cls-1" d="M509.17,216v71s-35.24-1-53.37,0c-11.63.65-18.63,10.24-22.16,17-2,3.79-3,15.1-3.17,25.72-.3,18.32-.71,43.29-.71,43.29h75.58l-9.2,76.34H429.76V616a153.08,153.08,0,0,1-15.45,5.76c-15,4.7-27.56,6.14-43.46,8-.39,0-6.18.7-12.07,1.12-3.24.23-6.39.45-7.23.41a11.65,11.65,0,0,0-1.92.08h0V450.09l-66.13-.51V372.72l66.9.26V299.7s.76-88.08,106-85.78c21,.45,52.63,1.28,52.64,1.28Z" transform="translate(-46.8 -57.16)"/></g></svg>