<svg id="Шар_1" data-name="Шар 1" xmlns="http://www.w3.org/2000/svg" xmlns:xlink="http://www.w3.org/1999/xlink" width="206.44mm" height="206.44mm" viewBox="0 0 585.19 585.19"><defs><style>.cls-1{fill:#fff;}.cls-2{fill:#003a27;}.cls-3{fill:url(#Градієнт_без_назви_88);}</style><linearGradient id="Градієнт_без_назви_88" x1="485.22" y1="99.97" x2="99.97" y2="485.22" gradientUnits="userSpaceOnUse"><stop offset="0.41" stop-color="#02301d"/><stop offset="0.8" stop-color="#108b63"/></linearGradient></defs><title>Інста</title><circle class="cls-1" cx="292.6" cy="292.6" r="292.6"/><circle class="cls-2" cx="292.6" cy="292.6" r="272.41"/><g id="Sycnf"><circle id="Градієнт" class="cls-3" cx="292.6" cy="292.6" r="272.41"/><path class="cls-1" d="M254.88,141h173a145.37,145.37,0,0,1,82.34,29.29A133.87,133.87,0,0,1,549,260.56V420.3a203.83,203.83,0,0,1-2,35.17c-1.81,12.59-3.43,23.95-9.6,37.57a112.62,112.62,0,0,1-19.1,28.77c-7.28,8.38-18.07,20.53-36.16,29.17-12.53,6-23.66,7.92-31.14,9.17A138.68,138.68,0,0,1,424,562c-43-1-96.94,4-179.5,0a127.84,127.84,0,0,1-83.79-36.45A126.33,126.33,0,0,1,128,438.7V266A130.08,130.08,0,0,1,157,181.19a132.26,132.26,0,0,1,24.57-19.75C210.34,143.48,239.3,141.05,254.88,141Zm-40.64,45.32a82,82,0,0,0-22.39,15.15A75.78,75.78,0,0,0,167,259.35V422.76a139.37,139.37,0,0,0,9.7,54.39,135.79,135.79,0,0,0,7.32,15.4A74.27,74.27,0,0,0,198.52,508a77.48,77.48,0,0,0,40,16c70.66-.68,125.28-1.22,160.61,0,11.23.39,35.07,1.46,62.33-9.47a134.37,134.37,0,0,0,27-14.66A74.32,74.32,0,0,0,503,479.47c7.7-16.13,7.31-31,7.21-37.05-.94-57.73-1.75-115.53,1-173.2.57-11.92-.1-36.88-16.51-58.56a76.84,76.84,0,0,0-10-10.89A97.84,97.84,0,0,0,418.93,179H251.77A82.68,82.68,0,0,0,214.24,186.32Z" transform="translate(-46.8 -57.16)"/><path class="cls-1" d="M449.07,350.8A110.39,110.39,0,1,1,338.69,240.42,110.38,110.38,0,0,1,449.07,350.8Zm-109.8-71a71,71,0,1,0,71,71A71,71,0,0,0,339.27,279.82Z" transform="translate(-46.8 -57.16)"/><circle class="cls-1" cx="404.8" cy="180.9" r="26.34"/></g></svg>