<svg id="Шар_1" data-name="Шар 1" xmlns="http://www.w3.org/2000/svg" width="206.44mm" height="206.44mm" viewBox="0 0 585.19 585.19"><defs><style>.cls-1,.cls-4{fill:#fff;}.cls-2{fill:#003a27;}.cls-3{fill:#103e35;}.cls-4{stroke:#fff;stroke-miterlimit:10;}.cls-5{fill:#b3b3b3;}.cls-6{fill:#e6e6e6;}</style></defs><title>КВ телєга</title><circle class="cls-1" cx="292.6" cy="292.6" r="292.6"/><circle class="cls-2" cx="292.6" cy="292.6" r="272.41"/><path class="cls-3" d="M371.37,620,131,381.06,484,186.38,609.52,311.55a287.67,287.67,0,0,1,1.7,56.34,284.15,284.15,0,0,1-7.44,48c-2.36,9.72-12.7,53.09-40.92,92.32C500.05,595.53,410.18,617,371.37,620Z" transform="translate(-46.8 -57.16)"/><path class="cls-4" d="M142.28,360.15,479,186.8,249.85,394.53,136.4,383.34c-4.59-.82-7.85-2.41-8.85-3.53a18.46,18.46,0,0,1-1.24-1.64,7.76,7.76,0,0,1-1-1.72,4.69,4.69,0,0,1-.3-1.13,12.62,12.62,0,0,1,.81-4.68C126.86,368.61,132.93,364.18,142.28,360.15Z" transform="translate(-46.8 -57.16)"/><path class="cls-5" d="M285.26,489.54l44.89-66-15-7.2Z" transform="translate(-46.8 -57.16)"/><path class="cls-6" d="M285.26,489.54l30.12-73.9,166.76-231L249.85,394.53Z" transform="translate(-46.8 -57.16)"/><path class="cls-4" d="M315.38,416,481.65,186.17q.36,141.59.71,283.17c.16,3.16,0,9.18-4,13.83,0,0-4.18,4.9-13,6.13C445.5,492.07,322.74,420.34,315.38,416Z" transform="translate(-46.8 -57.16)"/></svg>