<svg id="Шар_1" data-name="Шар 1" xmlns="http://www.w3.org/2000/svg" width="49.59mm" height="39.83mm" viewBox="0 0 140.57 112.89"><defs><style>.cls-1{fill:#fff;}</style></defs><title>палатка</title><path class="cls-1" d="M101,48.89l5.94-4.8a3.8,3.8,0,0,1,3.15-.77,3.84,3.84,0,0,1,2.51,2l8,11.91,9.1-11.49a3.85,3.85,0,0,1,2.46-1.79c1-.14,1.81.34,2.94,1.09a48.93,48.93,0,0,1,5.1,4,2.72,2.72,0,0,1,.4,3.74L130.13,68.6l51.53,72.85h4.79a9.21,9.21,0,0,1,1.37.18,4.53,4.53,0,0,1,2,.75,3.24,3.24,0,0,1,1,2,47.75,47.75,0,0,1-.25,8.41,3.46,3.46,0,0,1-.64,1.44,3.68,3.68,0,0,1-1.07.88,5.18,5.18,0,0,1-3.53.8c-2.44-.11-118.14.58-130.71,0a5.59,5.59,0,0,1-2.82-1,3.09,3.09,0,0,1-.82-.77,3.72,3.72,0,0,1-.56-2c-.14-2-.12-3-.12-3,0-.83,0-2.1.05-3.71a4,4,0,0,1,.56-1.47A4.42,4.42,0,0,1,53.59,142l3.13-.14c1.64-.06,2.83-.08,2.85-.08,1.74,0,15.39-18.24,52.8-73.17-6.12-7.23-10.47-12.76-11.82-14.81a4.07,4.07,0,0,1-.81-2.9A3.47,3.47,0,0,1,101,48.89ZM95.23,142h51.26l-25.63-36.07Z" transform="translate(-50.33 -43.24)"/></svg>