<svg id="Шар_1" data-name="Шар 1" xmlns="http://www.w3.org/2000/svg" width="146.64mm" height="146.64mm" viewBox="0 0 415.66 415.66"><defs><style>.cls-1{fill:#fff;}.cls-2,.cls-3{stroke:#000;stroke-miterlimit:10;stroke-width:2px;}.cls-3{fill:none;}</style></defs><title>коло</title><circle cx="207.83" cy="207.83" r="207.83"/><circle class="cls-1" cx="207.15" cy="209.11" r="191.23"/><g id="Шар_3" data-name="Шар 3"><g id="Шар_6" data-name="Шар 6"><path class="cls-2" d="M1572.33,178.93s10.35,23.55.18,43.67a42.74,42.74,0,0,1-8,11.06c-21.43,21.24-70.68,28.6-70.68,28.6" transform="translate(-1476.68 -79.11)"/><path class="cls-2" d="M1648,257s-51.48-14.55-71.91-33.61q-.88-.83-1.68-1.65c-18.41-19.27-2.08-42.79-2.08-42.79" transform="translate(-1476.68 -79.11)"/><path class="cls-2" d="M1697.87,203.2s-2.51,25.36,9.35,59.18c3.07,8.75,5,23.06-1.57,28.69-11.83,10.13-32.89,12.23-55.66,17.61l-.69.16c-1.41.34-2.84.7-4.28,1.08-2.63.69-5.3,1.45-8,2.26s-5.71,1.78-8.59,2.75l-.78.26c-3,1-5.9,2.08-8.76,3.17l-3.31,1.31c-2.81,1.15-5.59,2.36-8.33,3.61-1.59.72-3.16,1.46-4.71,2.2-2.18,1-4.35,2.12-6.5,3.22l-.29.15a82.4,82.4,0,0,0-10.67,6.63l-.41.3-.1.07a101.91,101.91,0,0,0-12.93,11.52l-.39.41c-.59.62-1.18,1.25-1.76,1.88-12,12.93-22.48,26-29.77,34.16a109.38,109.38,0,0,1-12.17,12c-2,1.63-4.07-2.65-4.07-2.65" transform="translate(-1476.68 -79.11)"/><path class="cls-2" d="M1860.43,365.07s-1.29,7.08-2.42,5.93c-4-4.14-15.94-17.12-30.14-30.69a167.13,167.13,0,0,0-23.58-19.13l-.52-.34q-2-1.29-4-2.51l-.29-.17c-4.15-2.52-8.27-4.79-12.25-6.81l0,0q-2.12-1.08-4.2-2l0,0-.09,0a83.91,83.91,0,0,0-14.9-5.4l-.48-.12a339.58,339.58,0,0,1-34.77-10.49,97.92,97.92,0,0,1-16.75-8.26c-12.57-7.75-18.07-81.74-18.07-81.74" transform="translate(-1476.68 -79.11)"/><line class="cls-2" x1="254.84" y1="157.59" x2="328.43" y2="73.53"/><path class="cls-3" d="M1492,275.13l53.43-26.42L1535.36,287s-.83,2.29-.13,2.74a4.52,4.52,0,0,0,1.92.57,10.81,10.81,0,0,0,2.91-1.57l31.17-38.83L1590.32,272c2.94,2.74,5.3,1,5.3,1s.64,0,.7-1.22-2.75-34.85-2.75-34.85l44.72,31.14" transform="translate(-1476.68 -79.11)"/><path class="cls-3" d="M1527.49,398.26l59.06-64.34,52.77-23.32L1619.91,362s-1.19,5.31-.46,5.87-.47.51.72.55a2.73,2.73,0,0,0,2.3-.76c.38-.47,46.3-54.18,46.3-54.18L1674,332.9s.5,2.2,1.43,2.52a2.61,2.61,0,0,0,2.1.16,16.57,16.57,0,0,0,3.58-4l11.36-21L1728,362s2.09,2.66,2.51,2.7a4.2,4.2,0,0,0,2.09-.44,3.08,3.08,0,0,0,1.05-2.21c-.1-.64-14.84-66.31-14.84-66.31l38,41.62s1.47,1.36,2.3,1.19a2.5,2.5,0,0,0,1.55-1,4.37,4.37,0,0,0,.68-1.87c.13-.81-4.15-35.58-4.15-35.58l51.2,22.09,49.27,48.51" transform="translate(-1476.68 -79.11)"/><path class="cls-2" d="M1743.36,249.41s24.32-19.52,33.28-27.06l3.08-2.6-.36,22.89s.82,2.29,1.46,2.5,2.09.37,2.6-.06,16-21.21,16-21.21l6.52,10.33a2,2,0,0,0,1.24.67,4.63,4.63,0,0,0,1.54-.1c.86-.13.18.16,1.08-.32s6.63-4.75,6.63-4.75l20.5,19.9s1.42,1.17,2.19,1.17,1.93.44,2.53,0a1.74,1.74,0,0,0,.77-1.81c0-1-4.17-28.21-4.17-28.21l27,5.73-6.55-16.62-53.52-57.19" transform="translate(-1476.68 -79.11)"/><line class="cls-3" x1="17.11" y1="183.15" x2="15.34" y2="196.02"/><line class="cls-3" x1="46.81" y1="314.04" x2="50.81" y2="319.15"/><path class="cls-2" d="M1857.7,370.69l2.73-5.62Z" transform="translate(-1476.68 -79.11)"/></g><g id="Шар_2" data-name="Шар 2"><path class="cls-2" d="M1743.36,249.41s63.87-89.66,60.79-92.74c-.47-.47-2.61,1.12-5.9,4.24-1.37,1.3-2.94,2.87-4.66,4.67-4.84,5-10.76,11.75-17,19.14-4.83,5.75-9.81,11.9-14.6,17.84-15.63,19.37-30.51,34.14-30.51,34.14" transform="translate(-1476.68 -79.11)"/><path class="cls-3" d="M1620.47,367.41l1.36-6.68" transform="translate(-1476.68 -79.11)"/><path class="cls-3" d="M1621.72,366.88a1.12,1.12,0,0,0,.28-.25c2.18-2.42,3.66-5.43,5.94-7.74" transform="translate(-1476.68 -79.11)"/><path class="cls-3" d="M1622.39,364.73a2.87,2.87,0,0,1,.41-1.7c1.11-2.19,2.74-4.13,3.52-6.46" transform="translate(-1476.68 -79.11)"/><path class="cls-3" d="M1621.53,367.38c.11.06.22-.06.27-.17a13.67,13.67,0,0,0,1.15-3.29" transform="translate(-1476.68 -79.11)"/><path class="cls-3" d="M1622.87,360.86a2.49,2.49,0,0,1,.4-1.2q2.19-3.95,4.63-7.73" transform="translate(-1476.68 -79.11)"/><path class="cls-3" d="M1621.65,360.47q3.4-5.81,7.32-11.28" transform="translate(-1476.68 -79.11)"/><path class="cls-3" d="M1620.21,362.6c2-1.49,4-3.07,5.1-5.31" transform="translate(-1476.68 -79.11)"/><path class="cls-3" d="M1621,361.06a2.25,2.25,0,0,1,.93-1.33l7.34-6.34" transform="translate(-1476.68 -79.11)"/><path class="cls-3" d="M1625.41,359.21a85.8,85.8,0,0,0,6.17-6.19" transform="translate(-1476.68 -79.11)"/><path class="cls-3" d="M1628.22,359.28a2.46,2.46,0,0,1,.4-.85c1.21-1.81,2.76-3.41,3.66-5.39" transform="translate(-1476.68 -79.11)"/><path class="cls-3" d="M1632.63,353.66l-6.41,6c1.58-3.5,2.62-8.07,4-11.64a65.81,65.81,0,0,0,4.08-13.24" transform="translate(-1476.68 -79.11)"/><path class="cls-3" d="M1624.63,352.86q6.45-11.61,13.18-23.08" transform="translate(-1476.68 -79.11)"/><path class="cls-3" d="M1624.35,356.91c2.32-5.38,6.76-9.75,8.39-15.38" transform="translate(-1476.68 -79.11)"/><path class="cls-3" d="M1623.1,356.05a.28.28,0,0,1,0-.28,10.91,10.91,0,0,1,2.42-4.44" transform="translate(-1476.68 -79.11)"/><path class="cls-3" d="M1626.21,355.38a40.84,40.84,0,0,0,7.19-7.32" transform="translate(-1476.68 -79.11)"/><path class="cls-3" d="M1629.23,353.32q2.41-2.73,4.62-5.63" transform="translate(-1476.68 -79.11)"/><path class="cls-3" d="M1632.15,353.65q2.7-3.48,5.18-7.13" transform="translate(-1476.68 -79.11)"/><path class="cls-3" d="M1632.08,353.11a23.13,23.13,0,0,0,2.52-4" transform="translate(-1476.68 -79.11)"/><path class="cls-3" d="M1629.76,353.17l4.88-4.58a21.85,21.85,0,0,0,3.25-3.55" transform="translate(-1476.68 -79.11)"/><path class="cls-3" d="M1628.61,343.7c.57,0,1-.51,1.32-1a87.76,87.76,0,0,0,7.46-13" transform="translate(-1476.68 -79.11)"/><path class="cls-3" d="M1627.37,348.37a130.48,130.48,0,0,0,6.69-17.22" transform="translate(-1476.68 -79.11)"/><path class="cls-3" d="M1626.5,347.42c.42-1.75,1.92-3.28,2.81-4.84q1.73-3,3.15-6.17" transform="translate(-1476.68 -79.11)"/><path class="cls-3" d="M1627.56,346.23a70,70,0,0,1,4.83-12.92" transform="translate(-1476.68 -79.11)"/><path class="cls-3" d="M1629.07,345.67a6.1,6.1,0,0,1,.93-3,30.06,30.06,0,0,1,5.3-7.08" transform="translate(-1476.68 -79.11)"/><path class="cls-3" d="M1630.93,348.74a.87.87,0,0,1,.15-.46c1.8-3.21,4.76-5.77,5.94-9.25" transform="translate(-1476.68 -79.11)"/><path class="cls-3" d="M1629.32,347a38.85,38.85,0,0,1,6.32-10.3" transform="translate(-1476.68 -79.11)"/><path class="cls-3" d="M1628.71,351a43.26,43.26,0,0,0,10.21-8.66" transform="translate(-1476.68 -79.11)"/><path class="cls-3" d="M1631.08,348.57a37.48,37.48,0,0,1,7.88-10.84" transform="translate(-1476.68 -79.11)"/><path class="cls-3" d="M1634.89,347.2a8.45,8.45,0,0,0,1.62-2.65,9.51,9.51,0,0,1,.69-2.58c.89-1.62,1.85-3.23,2.68-4.88" transform="translate(-1476.68 -79.11)"/><path class="cls-3" d="M1633.21,346.41a50.22,50.22,0,0,1,3.06-8" transform="translate(-1476.68 -79.11)"/><path class="cls-3" d="M1634.14,341.74c.13-.68,0-1.34.13-2a15.59,15.59,0,0,1,1.68-3.4" transform="translate(-1476.68 -79.11)"/><path class="cls-3" d="M1633.66,345.15c0,.1.18.06.27,0a15,15,0,0,0,3.87-3.57" transform="translate(-1476.68 -79.11)"/><path class="cls-3" d="M1635.94,346.11a66.08,66.08,0,0,1,6.35-8.88" transform="translate(-1476.68 -79.11)"/><path class="cls-3" d="M1641,340.22a20.6,20.6,0,0,0-1.52,2.86,2.09,2.09,0,0,0-.22,1.42,62.08,62.08,0,0,0-3.59,5.7,28.21,28.21,0,0,0,.76-6.15" transform="translate(-1476.68 -79.11)"/><path class="cls-3" d="M1634,342.84c-.14,0-.14-.24-.1-.39a44.91,44.91,0,0,1,1.7-5" transform="translate(-1476.68 -79.11)"/><path class="cls-3" d="M1631.79,345.52q2.64-4.84,5.59-9.51" transform="translate(-1476.68 -79.11)"/><path class="cls-3" d="M1640,339.42a44.5,44.5,0,0,1,4-9.16l-5.3,10.46" transform="translate(-1476.68 -79.11)"/><path class="cls-3" d="M1631.94,334.62a4.08,4.08,0,0,1,.37-1.63l4.22-11.11a51.88,51.88,0,0,0,2.83-9.16" transform="translate(-1476.68 -79.11)"/><path class="cls-3" d="M1632.36,335.16c3.29-5.66,5.35-11.93,7.38-18.15a12,12,0,0,0,.81-3.85" transform="translate(-1476.68 -79.11)"/><path class="cls-3" d="M1634.1,335.12a5.88,5.88,0,0,1,.68-3.46c3.17-7.38,7.51-14.51,8.27-22.51" transform="translate(-1476.68 -79.11)"/><path class="cls-3" d="M1633.47,338.45a55.47,55.47,0,0,0,11.65-26.4" transform="translate(-1476.68 -79.11)"/><path class="cls-3" d="M1639.71,330.69a31.28,31.28,0,0,1,3-16.21" transform="translate(-1476.68 -79.11)"/><path class="cls-3" d="M1636.5,329.94a8.22,8.22,0,0,0,1.21-1.29c.48-.66.86-1.39,1.29-2.09,1.18-1.95,2.77-3.76,3.19-6" transform="translate(-1476.68 -79.11)"/><path class="cls-3" d="M1636,330.45l7.79-23.25" transform="translate(-1476.68 -79.11)"/><path class="cls-3" d="M1639.4,314.18c.91-2.08,1.77-4.41,2.68-6.48-.17,3.67-1.76,7.1-2.76,10.63" transform="translate(-1476.68 -79.11)"/><path class="cls-3" d="M1643.19,307.71a118.32,118.32,0,0,1-.2,13.71" transform="translate(-1476.68 -79.11)"/><path class="cls-3" d="M1647,307.88c-.06,2.76-1.17,5.76-2.14,8.32-1.13,3-2.39,5.92-3.77,8.79" transform="translate(-1476.68 -79.11)"/><path class="cls-3" d="M1645.57,309.1c-.34,1.32-.76,2.61-1.18,3.91l-2.73,8.47" transform="translate(-1476.68 -79.11)"/><path class="cls-3" d="M1651.75,306.45c-.6,2.12-1.69,4.05-2.48,6.1a65.69,65.69,0,0,0-2,6.74,71.77,71.77,0,0,1-9.38,20.92" transform="translate(-1476.68 -79.11)"/><path class="cls-3" d="M1646.24,320.91q-3.59,7.36-7.28,14.66" transform="translate(-1476.68 -79.11)"/><path class="cls-3" d="M1650.12,307.53c.17,3.23-.89,6.41-2.14,9.4a53.14,53.14,0,0,0-3.38,9.11" transform="translate(-1476.68 -79.11)"/><path class="cls-3" d="M1648,311.81a120.83,120.83,0,0,0-6.79,16.65" transform="translate(-1476.68 -79.11)"/><path class="cls-3" d="M1647,312.3c-1.38,7.48-2.78,15-5.66,22.07" transform="translate(-1476.68 -79.11)"/><path class="cls-3" d="M1643.06,326.12c-1,3-2.6,5.59-3.66,8.48-.93,2.53-2.11,4.88-3.28,7.34" transform="translate(-1476.68 -79.11)"/><path class="cls-3" d="M1637.69,334.52a20.78,20.78,0,0,1,.72-5.44" transform="translate(-1476.68 -79.11)"/><path class="cls-3" d="M1636.05,336a55.14,55.14,0,0,1,3.77-6.25" transform="translate(-1476.68 -79.11)"/><path class="cls-3" d="M1641.36,327.66q-2.08,4.29-4.37,8.46l.12-.33c1.48-4.13,4-7.61,6.48-11.22" transform="translate(-1476.68 -79.11)"/><path class="cls-3" d="M1650.08,310a43,43,0,0,0,.92-4.94c-2.13,3.78-4.64,8.07-5.72,12.26" transform="translate(-1476.68 -79.11)"/><path class="cls-3" d="M1646.74,309.91a65.22,65.22,0,0,1-.11,12" transform="translate(-1476.68 -79.11)"/><path class="cls-3" d="M1654.13,306.25c0,5-2.26,9.6-4.47,14" transform="translate(-1476.68 -79.11)"/><path class="cls-3" d="M1655.17,310.06c-4.16,6.3-5.93,14-10.36,20.07" transform="translate(-1476.68 -79.11)"/><path class="cls-3" d="M1646.4,324.17a52.76,52.76,0,0,0,8.19-15.94" transform="translate(-1476.68 -79.11)"/><path class="cls-3" d="M1648.3,313.64c-1,1.37-2,2.79-2.88,4.23" transform="translate(-1476.68 -79.11)"/><path class="cls-3" d="M1652.66,307.62c0,.6-.37.84-.61,1.33a8.93,8.93,0,0,0-.74,3.65,13.39,13.39,0,0,1-1.26,4.09c-.41.94-.86,1.86-1.33,2.78,0,.06-.08.12-.15.11s0-.15,0-.08" transform="translate(-1476.68 -79.11)"/><path class="cls-3" d="M1653.29,310.11c.46-.23-.08,1.08-.09,1.14-.19.78-.25,1.57-.48,2.35a92.71,92.71,0,0,1-4.88,12.58c-.37.76-.38,1.71-.75,2.47a37.31,37.31,0,0,1-5,7.75" transform="translate(-1476.68 -79.11)"/><path class="cls-3" d="M1646.72,326.76a1.5,1.5,0,0,0-.9.51,19.85,19.85,0,0,0-3.84,5.21,4.22,4.22,0,0,1-.86,1.29" transform="translate(-1476.68 -79.11)"/><path class="cls-3" d="M1642.82,328.15a17.65,17.65,0,0,0,5.4-4.31" transform="translate(-1476.68 -79.11)"/><path class="cls-3" d="M1641.77,342.28a1.2,1.2,0,0,1,.18-1.1q2.11-3.92,4.44-7.68" transform="translate(-1476.68 -79.11)"/><path class="cls-3" d="M1639.82,341.57c-.08,0-.09-.12,0-.2a40.29,40.29,0,0,1,3.56-5.4" transform="translate(-1476.68 -79.11)"/><path class="cls-3" d="M1638,345.88l5.26-5.47" transform="translate(-1476.68 -79.11)"/><path class="cls-3" d="M1639.31,346.35l0,.24c.23.06.42-.16.56-.35.52-.74.85-1.52,1.3-2.28a29.68,29.68,0,0,1,2.38-2.89q2.4-3,4.61-6.11" transform="translate(-1476.68 -79.11)"/><path class="cls-3" d="M1641.71,341.59l10-12.53" transform="translate(-1476.68 -79.11)"/><path class="cls-3" d="M1644.16,331.37a1.87,1.87,0,0,1,.34-1.09,21.27,21.27,0,0,1,1.5-2.35" transform="translate(-1476.68 -79.11)"/><path class="cls-3" d="M1656.86,319.78c.18,0,.18.26.09.42l-3.16,5.31a36.58,36.58,0,0,1-5.83,8" transform="translate(-1476.68 -79.11)"/><path class="cls-3" d="M1656.54,318.45c-2.37,4.05-6,7.17-8.89,10.87a34.87,34.87,0,0,0-4.09,6.68" transform="translate(-1476.68 -79.11)"/><path class="cls-3" d="M1656,314.61c.4,2.8-.67,5.59-1.73,8.21-1.85,4.61-3.74,9.2-5.52,13.83" transform="translate(-1476.68 -79.11)"/><path class="cls-3" d="M1653.52,326.79c-2.28,1.17-3.61,3.56-5.35,5.43" transform="translate(-1476.68 -79.11)"/><path class="cls-3" d="M1651.31,325.92a80.68,80.68,0,0,1-7.93,9.76" transform="translate(-1476.68 -79.11)"/><path class="cls-3" d="M1645.71,334.69l2.43-3.09a28.88,28.88,0,0,1,3.38-3.78" transform="translate(-1476.68 -79.11)"/><path class="cls-3" d="M1648.5,332.62c-.26,0-.21-.4-.07-.61l5.69-8.65" transform="translate(-1476.68 -79.11)"/><path class="cls-3" d="M1638.52,348.45a40.78,40.78,0,0,0,2.7-4.3" transform="translate(-1476.68 -79.11)"/><path class="cls-3" d="M1649.84,331c5.28-4.57,9-10.6,12.71-16.54" transform="translate(-1476.68 -79.11)"/><path class="cls-3" d="M1649.36,332.72a2,2,0,0,0,1.12-.54,52.78,52.78,0,0,0,10.5-10.45c2.14-3,3.83-6.38,6.5-8.93" transform="translate(-1476.68 -79.11)"/><path class="cls-3" d="M1655.86,325.77a26.59,26.59,0,0,0,6.17-7.43" transform="translate(-1476.68 -79.11)"/><path class="cls-3" d="M1657.69,323.27a93.57,93.57,0,0,0,7.06-11.36" transform="translate(-1476.68 -79.11)"/><path class="cls-3" d="M1647.73,328.38c.08-1.79,1.16-3.36,2.2-4.83l6.19-8.7" transform="translate(-1476.68 -79.11)"/><path class="cls-3" d="M1650.59,324.15a31,31,0,0,1,2.94-4.43c1.17-1.25,2.42-2.47,3.56-3.78a103,103,0,0,0,6.76-8.65" transform="translate(-1476.68 -79.11)"/><path class="cls-3" d="M1657.51,318.06l7.75-7.53a34.6,34.6,0,0,0,4.17-4.56" transform="translate(-1476.68 -79.11)"/><path class="cls-3" d="M1657.25,318.56c3.22-2.21,6.38-4.53,9.45-6.95" transform="translate(-1476.68 -79.11)"/><path class="cls-3" d="M1656,320.57a91.31,91.31,0,0,1,13.56-9.44" transform="translate(-1476.68 -79.11)"/><path class="cls-3" d="M1656.85,310.56a15.43,15.43,0,0,0-.75,1.84,10,10,0,0,1-1.55,3.64" transform="translate(-1476.68 -79.11)"/><path class="cls-3" d="M1651.72,319a2.74,2.74,0,0,1,.5-1.1c1.66-2.61,3.44-5.18,4.86-7.93" transform="translate(-1476.68 -79.11)"/><path class="cls-3" d="M1656.77,306.94a7.41,7.41,0,0,1,2.72.34" transform="translate(-1476.68 -79.11)"/><path class="cls-3" d="M1655.34,308c1.62.42,3.23.91,4.83,1.44" transform="translate(-1476.68 -79.11)"/><path class="cls-3" d="M1654.55,309.35l1.86-.11a2.48,2.48,0,0,1,.77,0,2.57,2.57,0,0,1,.89.54l1.31,1.07" transform="translate(-1476.68 -79.11)"/><path class="cls-3" d="M1654.35,312.23a5.92,5.92,0,0,0,1.33.1,3.45,3.45,0,0,0,.91-.13,6.55,6.55,0,0,0,1.1-.53,11.73,11.73,0,0,1,3.91-1.31" transform="translate(-1476.68 -79.11)"/><path class="cls-3" d="M1656.26,313.67q3.39-3.75,6.87-7.43" transform="translate(-1476.68 -79.11)"/><path class="cls-3" d="M1657.7,313.24c.16-1.87.31-3.75.51-5.62" transform="translate(-1476.68 -79.11)"/><path class="cls-3" d="M1654.82,309.31l1.48,2.7a3.74,3.74,0,0,1,.67,2.16" transform="translate(-1476.68 -79.11)"/><path class="cls-3" d="M1656.89,321.27c-.07.16-.33.14-.43,0a.75.75,0,0,1-.12-.49v-2.86" transform="translate(-1476.68 -79.11)"/><path class="cls-3" d="M1662.5,308.77a.52.52,0,0,1,.69.17,1.56,1.56,0,0,1,.22.76,9,9,0,0,1-.27,4.28,9.31,9.31,0,0,1-3.24,3.57" transform="translate(-1476.68 -79.11)"/><path class="cls-3" d="M1657.37,315.6a4.43,4.43,0,0,1-1.88-2" transform="translate(-1476.68 -79.11)"/><path class="cls-3" d="M1660.86,314.94a6.63,6.63,0,0,1,1.22-4.19,26.26,26.26,0,0,1,5.09-6.17" transform="translate(-1476.68 -79.11)"/><path class="cls-3" d="M1658.92,313.59q5-3.94,10.08-7.75" transform="translate(-1476.68 -79.11)"/><path class="cls-3" d="M1660.09,307.69a1.93,1.93,0,0,1-.23.62,4.25,4.25,0,0,1-2.59,1.59" transform="translate(-1476.68 -79.11)"/><path class="cls-3" d="M1658.94,308.28l1-1.69" transform="translate(-1476.68 -79.11)"/><path class="cls-3" d="M1659.79,310.23c.75-.94,1.45-1.92,2.11-2.93" transform="translate(-1476.68 -79.11)"/><path class="cls-3" d="M1659.59,314.53c1.22-.95,2.41-1.95,3.54-3" transform="translate(-1476.68 -79.11)"/><path class="cls-3" d="M1663.6,312.2l14.91-5.63" transform="translate(-1476.68 -79.11)"/><path class="cls-3" d="M1660.44,316.64a1,1,0,0,1-1.16-.52,2.45,2.45,0,0,1-.23-1.34,5.7,5.7,0,0,0,0-1.37" transform="translate(-1476.68 -79.11)"/></g><path d="M1673.62,307.42l.85-.08a1.54,1.54,0,0,0,1.5-1.5,1.52,1.52,0,0,0-1.5-1.5l-.85.08a1.53,1.53,0,0,0-1.5,1.5,1.51,1.51,0,0,0,1.5,1.5Z" transform="translate(-1476.68 -79.11)"/><path d="M1667.2,309a11.87,11.87,0,0,1,7.49-5c1.88-.41,1.09-3.3-.8-2.89a14.9,14.9,0,0,0-9.28,6.37c-1.09,1.61,1.51,3.11,2.59,1.51Z" transform="translate(-1476.68 -79.11)"/><path d="M1667.88,306.91a1.76,1.76,0,0,0,.38,2.75,4.67,4.67,0,0,0,2.21.49,1.5,1.5,0,0,0,0-3h-.33l-.1,0-.32-.08c-.29-.11-.22-.06.24.16l.38.66,0,.19-.44,1.06.07-.08a1.5,1.5,0,0,0-2.12-2.12Z" transform="translate(-1476.68 -79.11)"/><path d="M1669.2,305.86c-1.33.7-2.06,2.26-2.88,3.46l2.74.36c0-.11,2-2.08,2.2-2.3.62-.65,1.69-1.9,2.68-1.9l-1.3-.74c.47.6-1.13,2.83-1.78,2.84l1.06.44c.58.53,2-.07,2.67-.16a20.64,20.64,0,0,1,2.6-.17c1.93,0,1.94-3,0-3-2.44,0-8.54.1-8.24,3.85a2.21,2.21,0,0,0,2.83,2c1.38-.39,2.61-2,3.25-3.19,1.45-2.76.2-6-3.18-4.25a14.18,14.18,0,0,0-3.78,3.34c-1,1.15-2.39,2.38-1.9,4.05a1.51,1.51,0,0,0,2.74.36c.46-.67,1.07-2,1.81-2.37,1.71-.9.19-3.49-1.52-2.6Z" transform="translate(-1476.68 -79.11)"/><path d="M1669.54,311.14a6.94,6.94,0,0,1,1.17,3.44l2.51-1.46-1.26-1.93a1.51,1.51,0,0,0-2.74,1.16,98.57,98.57,0,0,1,3.29,11.7l2.75-1.16a30,30,0,0,1-2.22-6.17l-2.9.79q2.59,8.19,4.75,16.49a1.52,1.52,0,0,0,2.51.66c7.39-6.52,1.36-19.47-1.78-26.55-.58-1.29-2.35-.71-2.74.36-2.82,7.67.19,14.34,2.34,21.84a1.51,1.51,0,0,0,3-.4,150.45,150.45,0,0,0-.06-16.45,1.5,1.5,0,0,0-3,0c-.11,2.51-.13,5,0,7.51l3-.4a46.31,46.31,0,0,1-2-14.18l-2.79.76a15.1,15.1,0,0,1,1.69,6.06,1.5,1.5,0,0,0,3,0l.52-8h-3a18.51,18.51,0,0,1,.07,3.49l2.94-.4a36.89,36.89,0,0,1-1.11-8l-3,.4a51.57,51.57,0,0,1,2.09,10.66c.16,1.9,3,2,3,0,0-2.92-.07-5.82-.26-8.73-.09-1.4-2-2.15-2.79-.76a19.41,19.41,0,0,0-2.16,6.29,1.51,1.51,0,0,0,2.74,1.16,28.88,28.88,0,0,0,3.34-6.49l-2.75-.36c1.19,5.29.4,9.75-.28,15a59.58,59.58,0,0,0,.38,13.93,1.51,1.51,0,0,0,2.79.76,82.33,82.33,0,0,0,5.21-10.63c1.82-4.55,5.26-8.11,7.18-12.59a1.5,1.5,0,0,0-2.59-1.52,31.5,31.5,0,0,0-4.07,7.72,18.2,18.2,0,0,1-7,8.43l2.26,1.3q.75-6.9,1.63-13.77c.22-1.66-2.68-2.07-2.94-.4a62.84,62.84,0,0,1-2.18,9.28h2.89c-.43-3.08.63-6.48,1-9.55a90.23,90.23,0,0,0,.7-9.14c.06-2-2.76-1.86-3,0a148.07,148.07,0,0,0-1.42,17.84c0,1.4,2.15,2.16,2.8.76a84.83,84.83,0,0,0,6.34-22.61l-2.94-.4c.44,6-1,11.71-2.65,17.45l2.94.39a58,58,0,0,1,.48-14.94h-3a52.88,52.88,0,0,1-.77,9.48l2.95.39a10.31,10.31,0,0,1,.33-4.74h-2.89a27.82,27.82,0,0,1-1.49,15.34l2.89.79c1.39-7.11,5.54-14,8.5-20.6.78-1.72-1.58-3.21-2.59-1.51-3.11,5.26-4.66,11.12-6.8,16.8l3,.4c.44-6.65,5.53-12.68,7-19.26.34-1.6-1.89-2.71-2.75-1.16l-5.12,9.3,2.74,1.16a17.55,17.55,0,0,1,2.69-5.84l-2.8-.75c-.29,5.14-1.76,9.92-3.35,14.78-.55,1.66,1.86,2.55,2.74,1.15,2.28-3.62,4.39-7.31,6.35-11.1.89-1.71-1.67-3.23-2.59-1.52a55.19,55.19,0,0,1-3.87,6.19l2.8.75c-.3-2.81,1.78-6.28,2.92-8.73l-2.79-.76a18.69,18.69,0,0,1-.31,5.42,1.51,1.51,0,0,0,2.74,1.16,61.69,61.69,0,0,0,4.27-8.38l-2.74-1.15a79.47,79.47,0,0,1-3.25,7.53l2.8.76a31.78,31.78,0,0,1,.79-7.15l-2.94-.4c0,3.65-1,12.24,3.51,13.86a1.51,1.51,0,0,0,1.84-1.05,59.77,59.77,0,0,0,.82-11.95,1.52,1.52,0,0,0-2.8-.76c-1.43,2.38-1.16,5.22-1.28,7.92l2.94-.4a6.23,6.23,0,0,1,.72-6.34c1.93.08,1.92-2.92,0-3-5-.2-4.48,7-3.61,10.14a1.51,1.51,0,0,0,2.95-.4c.09-2-.19-4.64.87-6.41l-2.79-.75a56.29,56.29,0,0,1-.71,11.15l1.84-1c.22.07-.78-2.87-.83-3.08a33.11,33.11,0,0,1-.47-7.89c0-1.66-2.57-2.08-3-.4a34.93,34.93,0,0,0-.9,7.95c0,1.42,2.12,2.13,2.79.75a88.14,88.14,0,0,0,3.55-8.24c.59-1.58-2.06-2.72-2.74-1.16a62.16,62.16,0,0,1-4.27,8.37l2.74,1.16a22.37,22.37,0,0,0,.42-6.22c-.1-1.34-2.11-2.22-2.8-.75-1.42,3-3.69,6.8-3.33,10.24a1.51,1.51,0,0,0,2.79.76,54.17,54.17,0,0,0,3.87-6.18l-2.59-1.52c-2,3.8-4.07,7.49-6.35,11.11l2.74,1.15c1.68-5.12,3.16-10.17,3.46-15.57.09-1.6-2-1.89-2.79-.76a19.19,19.19,0,0,0-3,6.55,1.51,1.51,0,0,0,2.74,1.16l5.12-9.3-2.74-1.16c-1.49,6.93-6.58,13-7,20.06-.12,1.8,2.39,1.88,2.94.4,2-5.44,3.53-11.05,6.5-16.09l-2.59-1.51c-3.06,6.8-7.36,13.94-8.8,21.32a1.5,1.5,0,0,0,2.89.79,30.62,30.62,0,0,0,1.49-16.92,1.51,1.51,0,0,0-2.89,0,16.83,16.83,0,0,0-.44,5.53c.12,1.57,2.64,2.18,2.94.4a57.05,57.05,0,0,0,.88-10.27c0-2-2.76-1.86-3,0a58,58,0,0,0-.48,14.94c.2,1.59,2.44,2.15,2.95.4,1.75-6,3.22-11.92,2.76-18.24-.12-1.56-2.67-2.18-3-.4-1.19,7.55-2.83,14.93-6,21.89l2.8.76a148.07,148.07,0,0,1,1.42-17.84h-3c-.18,6.39-2.49,13.18-1.61,19.49.21,1.57,2.48,1.27,2.89,0a61.6,61.6,0,0,0,2.18-9.28l-3-.4q-.88,6.87-1.63,13.77a1.51,1.51,0,0,0,2.26,1.3,24.27,24.27,0,0,0,6.67-6.38c2.17-3.48,2.88-7.51,5.43-10.85l-2.59-1.52c-1.77,4.12-4.89,7.4-6.75,11.46s-3.44,7.9-5.64,11.76l2.8.76a61.86,61.86,0,0,1,.15-16.92,33.53,33.53,0,0,0-.35-12.82c-.26-1.17-2.23-1.56-2.74-.36a28.27,28.27,0,0,1-3.34,6.49l2.74,1.16a16.06,16.06,0,0,1,1.86-5.58l-2.8-.75c.19,2.91.27,5.81.26,8.73h3a54.61,54.61,0,0,0-2.2-11.46c-.48-1.57-3-1.34-2.94.4a40.56,40.56,0,0,0,1.22,8.77,1.51,1.51,0,0,0,3-.4,18.51,18.51,0,0,0-.07-3.49,1.5,1.5,0,0,0-3,0l-.52,8h3a20.14,20.14,0,0,0-2.1-7.57,1.51,1.51,0,0,0-2.8.75,49,49,0,0,0,2.15,15c.48,1.57,3,1.35,2.94-.4-.09-2.51-.07-5,0-7.51h-3a150.45,150.45,0,0,1,.06,16.45l2.95-.4c-1.94-6.75-4.9-13.3-2.35-20.24l-2.74.36c2.52,5.7,8.4,17.48,2.25,22.91l2.5.66q-2.16-8.29-4.74-16.48a1.5,1.5,0,0,0-2.9.79,35.27,35.27,0,0,0,2.52,6.89c.78,1.61,3.06.43,2.75-1.15a98.62,98.62,0,0,0-3.3-11.7l-2.74,1.15a10.47,10.47,0,0,0,1.73,2.54c1.06,1.28,2.72-.15,2.51-1.46a12.13,12.13,0,0,0-1.48-4.15c-.94-1.69-3.53-.18-2.59,1.51Z" transform="translate(-1476.68 -79.11)"/><path d="M1760.19,337.14c1.82-6.37-.39-13.71-1.34-20.09-.6-4-1.41-8.07-1.62-12.11-.11-2,.67-4.42-.48-6.19a1.52,1.52,0,0,0-2.74.36c-3.78,12.3,2,24.25,2,36.62l2.56-1.06a98.64,98.64,0,0,1-7.18-9.38l-2.36,1.82,6,4.92c1,.86,3,.1,2.51-1.46L1754,320.16a1.5,1.5,0,0,0-2.89.8q-1.35,5.1-2.2,2.7a3.22,3.22,0,0,0-.58-1,16.34,16.34,0,0,1-1.53-1.77c-2.2-2.61-2.88-4-1.25-7.22,2.4-4.8,6.58-8,9.13-12.63l-2.74-1.15c-3.45,8.69-4,15.34.18,23.78a1.51,1.51,0,0,0,2.8-.76,196.35,196.35,0,0,0-2.94-19.73c-.33-1.77-2.82-1.18-3,.4a26.82,26.82,0,0,0,.84,9.35,1.51,1.51,0,0,0,2.89,0,20.35,20.35,0,0,0,1.37-8.2,1.5,1.5,0,0,0-2.94-.39c-1.13,3.39-3.16,6.48-2.81,10.2s2.6,6.8,3.13,10.43l1-1.85c-1.34.2-.43-8.52-.4-9.55a35.72,35.72,0,0,0-.56-6.85c-.23-1.41-2.08-1.29-2.74-.36-3.32,4.65-1.42,12.89-1.28,18.27l2.8-.76a29.92,29.92,0,0,1-2.29-14.5c.12-1.57-2-1.93-2.79-.76-2.36,3.68-.42,7.46-1.53,11.43l2.5-.67a6.21,6.21,0,0,1-1.61-4c-.16-1.2-1.77-1.34-2.51-.67-2.08,1.9-6.74-6.38-7.93-7.77-2.61-3.05-5.39-5.48-7.83-8.76a44.68,44.68,0,0,0-7.06-7.55c-3-2.51-6.33-4.41-8.43-7.8l-1.69,2.2,1.56.63c1.19.47,2-.86,1.85-1.85a19.78,19.78,0,0,0-.94-3.71l-2.51,1.46c2.47,2.92,3.22,6.89,5.63,9.93a41.11,41.11,0,0,0,7.4,6.85,23.44,23.44,0,0,0,9.86,4.6c4.11,1,5.59,2.32,7.22,6.17a48,48,0,0,1,2.4,7.21l1.84-1.84c-2.71-.59-12-20.59-15.5-13a1.59,1.59,0,0,0,.24,1.82c1.9,2.35,7,5.39,10,4a1.47,1.47,0,0,0,.74-1.3c-.3-2.58-1.65-2-3.56-3.35-1.19-.83-3,.85-2,2,1.31,1.74,2.41,5.39,5.29,5.1a2.75,2.75,0,0,0,2.26-3.91,1.51,1.51,0,0,0-3,.4c-.32,2.63-.15,7.54,3.67,7.63s6-6.31,6.88-9.08a1.51,1.51,0,0,0-2.5-1.46,29.89,29.89,0,0,0-3.7,5.29c-.93,1.69,1.65,3.2,2.59,1.51a60.92,60.92,0,0,1,5.12-7.8h-2.12l.1.15a1.52,1.52,0,0,0,2.56,1.06l1.4-1.48a1.5,1.5,0,0,0-1.81-2.35l-4.6,2.74,2.05,2.05a18,18,0,0,1,3.38-3.48l-2.36-1.82a49.7,49.7,0,0,1-3.16,4.49c-1.18,1.5.93,3.64,2.12,2.12a57.38,57.38,0,0,0,3.63-5.1c1-1.53-1.11-2.82-2.36-1.81A21.52,21.52,0,0,0,1745,303c-.92,1.25.84,2.78,2,2.06l4.6-2.74-1.82-2.36-1.4,1.48,2.56,1.06a3,3,0,0,0-1-2.28,1.52,1.52,0,0,0-2.12,0,66.45,66.45,0,0,0-5.59,8.42l2.59,1.51a25.51,25.51,0,0,1,3.23-4.68l-2.51-1.46c-.32,1-1.31,4.74-2.42,5.2-2.41,1-2.41-1.54-2.24-2.95l-3,.4a16.08,16.08,0,0,0-2.06-3.51l-2,2.06c.28.19,2.81,2.13,1.4-.93-.4-.87-4.18-2.1-5-3.1l.23,1.82c-.3.65,6.8,9.22,7.72,10.49,1.24,1.72,2.22,3.37,4.39,3.84a1.52,1.52,0,0,0,1.85-1.84c-.94-3.83-2.23-8.47-4.65-11.71s-5.51-3.12-9.27-4.16c-4.8-1.32-9.52-5.47-12.77-9.16-2.94-3.33-3.76-7.71-6.59-11.06a1.51,1.51,0,0,0-2.5,1.46,18.84,18.84,0,0,1,.93,3.71l1.85-1.84-1.56-.63c-1.25-.5-2.34,1.16-1.7,2.2,2.54,4.11,6.65,6.33,10.15,9.51,4,3.64,6.45,8.5,10.4,12.1,3.46,3.15,5.4,7.44,8.71,10.61,2.11,2,4.55,2.24,6.7.28l-2.5-.67a9.89,9.89,0,0,0,2.38,5.3,1.51,1.51,0,0,0,2.51-.66c1-3.45-.77-7.58,1.23-10.71l-2.8-.75a33,33,0,0,0,2.7,16c.59,1.4,2.83.64,2.79-.76-.12-4.51-1.91-12.87.87-16.75l-2.74-.36c.8,5-1.09,10.78.49,15.53.71,2.11,1.9,3.29,4.16,3,.87-.13,1.15-1.14,1-1.85-.46-3.06-2.14-5.62-2.78-8.59-.83-3.84,1.29-7,2.45-10.45l-3-.4a18.44,18.44,0,0,1-1.26,7.4h2.89a24.7,24.7,0,0,1-.73-8.55l-3,.39a189.3,189.3,0,0,1,2.84,18.94l2.79-.76c-3.86-7.72-3-13.7.12-21.46.64-1.6-1.93-2.62-2.74-1.16-1.53,2.77-4,4.74-5.9,7.24a38.77,38.77,0,0,0-3.92,6.82c-2.19,4.63-2.12,5.4,1.5,8.71,2.16,2,3.46,6.73,7.14,5.89s3.64-5,3.09-8l-2.89.8,3.56,10.41,2.51-1.46-6-4.92c-1.21-1-3.38.29-2.35,1.81a105.94,105.94,0,0,0,7.64,10,1.52,1.52,0,0,0,2.57-1.06c0-12-5.73-23.9-2.07-35.82l-2.74.35c.84,1.3.11,5.58.28,7.16.28,2.52.71,5,1.08,7.54,1,6.56,3.63,14.92,1.78,21.38a1.5,1.5,0,0,0,2.89.8Z" transform="translate(-1476.68 -79.11)"/><path d="M1711.84,284.44c2.67.92,4.28,4.1,6.78,5.56a25.5,25.5,0,0,0,8.62,2.74,68.76,68.76,0,0,1,10.61,2.32c1.57.54,4.15,1.05,5.28,2.34,2.47,2.81.67,7.72-1.82,9.76l2.56,1.07c-.2-1.8,3.05-4.54,4.11-5.88,1.44-1.81,2.92-3.59,4.41-5.37l-2.51-1.46c-.39,1.32-2.59,6.63-4.4,6.89q-3.59-1.35-2-3.94a4.66,4.66,0,0,1-1.32,4l2.74.36a5.75,5.75,0,0,1,.47-4.45l-2.9-.79c-.68,2.23-2,6.05-4.12,7.39l1.82.23c-1.75-1.43.09-5.16,1.27-6.26l-2.51-.66a8.48,8.48,0,0,1-.51,5.88l3,.4c-.13-2.34-.17-4.65-.11-7,0-1.65-2.66-2.09-3-.4a11.9,11.9,0,0,1-1.4,4.53l2.79.76c-.17-1.41-.33-2.82-.47-4.23a1.51,1.51,0,0,0-3-.4l-1.37,3.85,2.94.4a32.31,32.31,0,0,1,1.58-8.51h-2.89a22.34,22.34,0,0,1,.09,6.63l1.9-1.45c-4.7-1.37-8-4.79-12-7.36a14,14,0,0,0-4.22-2.16c-1.1-.24-3,.5-3.71.19-1.59-.66-2.59,1.91-1.15,2.74,5.8,3.34,12.81,9.1,19.91,8.69,1.91-.11,1.94-3,0-3-4.2,0-9.25,0-12.68-2.81l-1.06,2.56a14,14,0,0,0,5-1.61c2-1,.35-1.57,3.93-.9a24.55,24.55,0,0,1,4.78,1.79l.4-2.94a39.19,39.19,0,0,1-6.92-1.24l-.79,2.89a15.65,15.65,0,0,1,5.64,2.23l1.15-2.74-2.13-.52c-1.87-.46-2.67,2.43-.79,2.89l2.12.52a1.51,1.51,0,0,0,1.16-2.74,17.06,17.06,0,0,0-6.36-2.53c-1.87-.36-2.68,2.38-.79,2.89a44,44,0,0,0,7.71,1.35c1.85.16,1.81-2.36.4-2.95-2.19-.92-5.08-2.54-7.53-2.37-2.76.19-3.8,2.62-7,3-1.13.13-2.17,1.63-1.06,2.56,4.12,3.43,9.63,3.67,14.8,3.69v-3c-6.27.36-13.19-5.28-18.4-8.28l-1.16,2.74c1.14.47,2.16.07,3.39.17,2.42.18,4.3,1.78,6.23,3.2,3.29,2.43,6.34,4.8,10.32,6a1.53,1.53,0,0,0,1.9-1.45,25.67,25.67,0,0,0-.2-7.43c-.29-1.55-2.47-1.3-2.89,0a35.14,35.14,0,0,0-1.69,9.31c-.08,1.78,2.41,1.92,3,.4l1.37-3.85-2.94-.4c.14,1.41.3,2.82.47,4.23s2.08,2.26,2.8.76a19.67,19.67,0,0,0,1.7-5.25l-2.94-.4c-.06,2.34,0,4.65.11,7a1.51,1.51,0,0,0,2.95.4,13,13,0,0,0,.5-7.48,1.51,1.51,0,0,0-2.51-.66c-2.51,2.35-4.58,7.79-1.26,10.5a1.55,1.55,0,0,0,1.81.24c2.94-1.82,4.55-6.05,5.51-9.19.58-1.89-2.19-2.53-2.9-.79a9.39,9.39,0,0,0-.46,6c.29,1.4,2,1.29,2.74.36,1.63-2.15,3.25-7.42,0-9.24-3.53-2-4.82,4.12-5,6.12-.35,3.18,1.11,6.24,4.74,5.49,4-.83,7.22-6.5,8.28-10.07.4-1.37-1.53-2.63-2.51-1.46-2.28,2.71-4.51,5.45-6.67,8.26-1.18,1.53-3,3-2.73,5.11a1.52,1.52,0,0,0,2.56,1.06c2.23-1.84,4.68-6.21,4.57-9.24-.13-3.31-3-5.21-5.71-6.45-5.45-2.5-11.11-2.93-16.86-4.26a15.59,15.59,0,0,1-8.34-4.49c-1.56-1.62-2.37-2.59-4.45-3.31-1.83-.63-2.62,2.27-.8,2.9Z" transform="translate(-1476.68 -79.11)"/><path d="M1715.66,289.46a1.5,1.5,0,0,0,0-3,1.5,1.5,0,0,0,0,3Z" transform="translate(-1476.68 -79.11)"/><path d="M1714.25,289.09c-.32,4.84,1.93,8.9,2.87,13.54,1.11,5.46.67,11,2.69,16.24a1.51,1.51,0,0,0,3-.4c.22-11.09-4.8-22.13-8.07-32.56a1.5,1.5,0,0,0-2.89.79,40.29,40.29,0,0,0,1.36,6.16l2.75-1.15c-1.11-2.51-3.36-7-6.63-6.43-2.24.36-4.9,3-6.75,4.23-3,2-5.87,4.18-8.73,6.39-1.48,1.14-.15,3.67,1.51,2.59,5.35-3.48,10.82-6.69,16.46-9.67l-1.82-2.35c-5.62,5.09-12.85,10.84-15.8,18.1-2.68,6.6,1.91,12.4,5.44,17.71,5,7.5,10.7,14.38,15.59,22,4.65,7.22,10,14,15.33,20.69.84,1.06,2.56.14,2.56-1.06,0-7.73-3.19-14.89-4.54-22.42a161.63,161.63,0,0,0-6.2-25.07,1.51,1.51,0,0,0-2.95.4c-.32,7.53.73,14.94,1.92,22.36a58,58,0,0,0,2.16,9.91c1.33,3.86,3.6,7.29,5.1,11.09.69,1.75,3.44,1.1,2.89-.8-3.11-10.8-3.13-22.21-6.48-33a1.51,1.51,0,0,0-3,.4,50.58,50.58,0,0,0,2.25,20.66,1.5,1.5,0,0,0,2.89-.8l-1.63-7.43c-.38-1.74-2.83-1.21-3,.39a42.56,42.56,0,0,0,1.2,13.68l2.74-1.15-4.76-11c-.7-1.63-3.08-.42-2.74,1.16l1.51,7,2.89-.8a59.81,59.81,0,0,0-5.88-12.19c-2.73-4-6.5-7.18-9.32-11.15-2.66-3.75-5-7.75-7.45-11.64-3-4.76-8.8-13-2.75-17.84l-2.56-1.06a11,11,0,0,1-.68,5.6c-.63,1.63,1.87,2.55,2.74,1.15a16.66,16.66,0,0,0,1.62-3.21l-3-.4c-.45,3.92-2,9.16-.86,13.06,1.05,3.47,5,5,5.81,8.51l2.9-.8a22.29,22.29,0,0,0-4.44-8.15,1.51,1.51,0,0,0-2.36.3,4.65,4.65,0,0,0,.21,5.22c2.15,3.19,5.89,5.18,8.17,8.47,4.42,6.41,7,13.91,11.29,20.38a1.52,1.52,0,0,0,2.74-.36,64.41,64.41,0,0,0,1.58-10.06l-3,.4c.8,2.69,1.46,5.38,2,8.13.33,1.63,3.17,1.28,3-.4L1720,317.07c-.87-6.82-1.41-13.85-3.5-20.43-1-3.18-2.53-9.6-6.87-8.63-2.88.64-5.86,2.62-8.44,4-2.17,1.17-4.55,2-5,4.61-.2,1.13,1,2.54,2.21,1.69a55,55,0,0,1,11.26-6.43l-1.84-1.84a24.64,24.64,0,0,1-7.15,10.38c-1.45,1.27.68,3.39,2.12,2.12a27.63,27.63,0,0,0,7.92-11.7c.36-1-.81-2.29-1.85-1.85a58.79,58.79,0,0,0-12,6.73l2.2,1.69c.33-1.86,5.29-3.7,6.81-4.45,3.37-1.65,5.31-1.88,6.89,2.09,1.86,4.66,2.61,9.7,3.27,14.65,1.46,10.93,2.8,21.88,4.2,32.82l3-.4c-.55-2.75-1.21-5.44-2-8.12a1.51,1.51,0,0,0-3,.39,58.93,58.93,0,0,1-1.47,9.26l2.74-.36c-3.55-5.28-5.91-11.18-9-16.7a41.58,41.58,0,0,0-4.19-6.25c-1.33-1.62-7.58-5.82-6.44-8.08l-2.36.3a18.41,18.41,0,0,1,3.67,6.83,1.51,1.51,0,0,0,2.9-.8c-.67-2.85-2.61-4.06-4.32-6.25-3-3.84-1-10-.53-14.52.21-1.84-2.36-1.8-2.94-.4l-1.32,2.5,2.74,1.15a12.25,12.25,0,0,0,.79-6.39,1.52,1.52,0,0,0-2.56-1.06c-8.3,6.68.06,18,4.15,24.43,2.81,4.45,5.47,9,9,13a56.46,56.46,0,0,1,11.49,18.34,1.5,1.5,0,0,0,2.89-.8l-1.51-7-2.74,1.15,4.76,11c.69,1.6,3.14.44,2.74-1.15a40,40,0,0,1-1.09-12.89l-2.94.4,1.63,7.44,2.89-.8a48.6,48.6,0,0,1-2.14-19.86l-2.94.4c3.34,10.75,3.36,22.15,6.48,33l2.89-.8c-2.59-6.57-5.79-12.23-7-19.33-1.3-7.69-2.41-15.41-2.08-23.23l-2.94.4a143.68,143.68,0,0,1,5.89,23.2c1.33,7.81,4.73,15.53,4.74,23.49l2.56-1.06c-4.8-6.05-9.61-12.12-13.87-18.57-3.73-5.64-7.17-11.33-11.43-16.62-4.38-5.45-13.68-15.51-9.95-22.89,3.21-6.35,9.52-11.46,14.69-16.15,1.3-1.18-.35-3.13-1.82-2.36q-8.45,4.47-16.45,9.67l1.51,2.59c3.1-2.39,6.24-4.7,9.48-6.89,1.41-1,3-2.63,4.81-2.57,2.16.08,2.9,2.35,3.71,4.19.69,1.57,3.24.45,2.75-1.15a39.41,39.41,0,0,1-1.37-6.16l-2.89.79c3.17,10.12,8.17,21,8,31.77l2.94-.39c-1.8-4.71-1.63-9.62-2.38-14.53s-3.4-9.41-3.07-14.46c.13-1.93-2.87-1.92-3,0Z" transform="translate(-1476.68 -79.11)"/><path d="M1699.87,309.17a138,138,0,0,1,6.39-16.92l-2.8-.76c.14,5.65-6.94,9.18-5.88,15.24.4,2.33,2.54,4.71,3.66,6.69,1.7,3,3.23,6.06,4.67,9.18.81,1.75,3.4.22,2.59-1.52-1.2-2.6-2.45-5.16-3.83-7.67-1.71-3.13-4.62-6.23-3.57-10.1,1.23-4.53,5.48-6.73,5.36-11.82,0-1.38-2.14-2.19-2.79-.76a142.87,142.87,0,0,0-6.69,17.65c-.57,1.85,2.33,2.64,2.89.79Z" transform="translate(-1476.68 -79.11)"/><path d="M1708,325.94a78.65,78.65,0,0,1,11.5,12l1.06-2.56c-1.83,0-5.29-6.24-6.29-7.61-1.91-2.64-3.72-5.36-5.46-8.11a1.5,1.5,0,0,0-2.59,1.51c1.64,3.5,3.34,7.32,5.69,10.41,2.12,2.79,5.51,3.33,8.21,5.52,1,.86,3,.1,2.51-1.46-2.53-7.3-5.87-14-7.3-21.71a103.21,103.21,0,0,1-1.44-13.12c-.16-3,.27-6.4-.47-9.33-.63-2.5-2.55-3.94-4.51-1.66-.56.65-.77,2.88-1.12,3.54-.6,1.16-1.6,2.09-2.24,3.23-1.72,3-2,6.62-3.27,9.82l2.5-.67a8.11,8.11,0,0,1-1.52-2.66c-.46-1.08-2.07-.87-2.59,0l-.77,1.29,2.59,1.51a49.22,49.22,0,0,1,9-11.48l-2.51-1.46c-.48,2.57-3.6,5.48-5,7.67a45.52,45.52,0,0,0-3.48,7.12l2.94.4a21,21,0,0,0-.81-4.22c-.46-1.54-3.17-1.34-2.94.4.62,4.66,3.51,8.9,5.71,13,2.62,4.88,5,10,8.32,14.49.82,1.1,2.84.87,2.8-.76-.31-10-6.15-20-10-29-.66-1.53-2.66-.53-2.79.75-.64,5.89-.64,10.61,4,14.48,3.17,2.62,5.51,5.47,6.51,9.53.42,1.71.21,2.66,1.68,3.7,1.3.91,2.72-.83,2-2.05-4.44-8.26-7.86-15.83-9.67-25.09-.32-1.67-3-1.28-2.94.4.22,6.48,2.15,12.45,4.34,18.51l2.89-.8c-2.91-7.84-8.58-16.68-3.8-24.94l-2.79-.76c-.12,3.85-.42,7.65-.9,11.47-.24,1.91,2.75,1.88,3,0,.29-2.18.66-4.31,1.08-6.46l-3-.4.27,7c.06,1.65,2.53,2.1,3,.4a62.47,62.47,0,0,0,1.64-9.91h-3l.12,4c.07,1.92,3,1.94,3,0l-.13-7.15a1.51,1.51,0,0,0-3-.39,35.4,35.4,0,0,0,1.84,23.71c.6,1.37,2.89.67,2.8-.76l-.81-12.37a1.5,1.5,0,0,0-3,0l-.12,6.62h3c0-4.92-1.34-10.06,1.72-14.38l-2.79-.76c-.5,9.2,2.2,18.49,3.91,27.47.34,1.81,2.75,1.13,2.94-.4,1-8.19-.36-16-2.86-23.84a1.51,1.51,0,0,0-2.9.8l5.94,31.6,2.89-.79c-4.13-11.55-5.69-24.31-8-36.33l-2.75,1.16c2.82,4.67,2.54,10.08,2.89,15.34s.94,10.35,1.53,15.51l3-.4-3.09-12.62c-.46-1.87-3.35-1.08-2.89.8l3.09,12.62c.39,1.6,3.14,1.31,2.94-.4-.73-6.33-1.4-12.66-1.73-19-.24-4.73-.6-9.2-3.1-13.34a1.51,1.51,0,0,0-2.74,1.16c2.28,12,3.84,24.78,8,36.32a1.5,1.5,0,0,0,2.89-.79l-5.93-31.61-2.9.8c2.42,7.54,3.75,15.12,2.76,23l3-.4c-1.65-8.69-4.28-17.78-3.8-26.67.08-1.61-2-1.87-2.8-.75-3.43,4.84-2.18,10.31-2.13,15.89a1.5,1.5,0,0,0,3,0l.12-6.62h-3l.81,12.37,2.79-.76a31.91,31.91,0,0,1-1.53-21.4l-3-.4.13,7.15h3l-.12-4a1.5,1.5,0,0,0-3,0,58.67,58.67,0,0,1-1.53,9.12l2.94.39-.27-7c-.06-1.61-2.6-2.13-2.94-.39-.48,2.4-.87,4.81-1.19,7.25h3c.48-3.82.78-7.62.9-11.47a1.51,1.51,0,0,0-2.8-.75c-5.31,9.17.23,18.44,3.5,27.25.66,1.79,3.55,1,2.89-.8-2.09-5.79-4-11.5-4.23-17.71l-3,.4c1.85,9.51,5.41,17.33,10,25.8l2.06-2.05c-.19-.13-1.1-4.67-1.21-4.91a19.31,19.31,0,0,0-3.58-5.28c-1.59-1.72-3.91-2.91-5.17-4.86-1.68-2.57-1.12-7.12-.8-10.07l-2.8.76c3.68,8.51,9.35,18.07,9.64,27.52l2.79-.75a91.06,91.06,0,0,1-6.6-11.3c-2.34-4.34-6.36-9.7-7-14.66l-3,.4a12,12,0,0,1,.7,3.42,1.51,1.51,0,0,0,3,.4,40.11,40.11,0,0,1,5.47-9.67c1.3-1.71,2.56-3,3-5.12a1.51,1.51,0,0,0-2.5-1.46,51.76,51.76,0,0,0-9.51,12.09,1.5,1.5,0,0,0,2.59,1.51l.77-1.28h-2.59a13.7,13.7,0,0,0,2,3.27c.79,1,2.13.24,2.51-.67,1.21-2.92,1.45-6.3,3-9.1.86-1.58,2.26-2.81,2.9-4.53.35-.93,0-2.59-.42-.41a17.05,17.05,0,0,0,.09,3.11c.1,3,.23,6.05.5,9.07a87.67,87.67,0,0,0,2.4,14.67c1.5,5.71,4.2,10.88,6.13,16.43l2.5-1.46c-2.34-1.9-5.19-2.89-7.28-5-2.79-2.83-4.47-6.74-6.15-10.31l-2.59,1.51c2.57,4.07,5.3,8,8.24,11.82,1.62,2.08,3.19,5.36,6.1,5.39a1.52,1.52,0,0,0,1.06-2.56,78.19,78.19,0,0,0-11.5-12c-1.47-1.24-3.6.87-2.12,2.12Z" transform="translate(-1476.68 -79.11)"/><path d="M1598.62,240.41a94.77,94.77,0,0,1,11.51,7.93c3.15,2.53,6.83,4.23,10,6.65,3,2.24,5.58,4.88,8.68,7,3.4,2.3,6.79,5.3,10.34,7.22A1.56,1.56,0,0,0,1641,269c2.37-2.18,2.66-5.29,5.6-6.95,1.3-.74,3.59-1.43,3.85-3.25a2.7,2.7,0,0,0-1-2.37c-2-1.74-6.36-.82-8.77-1.5-1.58-.44-2.74,2-1.15,2.74a27.69,27.69,0,0,1,5.79,3.47l1.46-2.51c-13.21-4.3-22.57-15.35-36.29-18.87a1.52,1.52,0,0,0-1.84,1.05c-.65,2.71.17,4.5,2.34,6.25,2.87,2.32,6.34,4.15,9.32,6.4,7,5.25,15.11,8.64,22,14l1.82-2.35c-5.6-3.39-10-8.05-14.71-12.51-2.08-2-4.22-3.85-6.48-5.6-2.7-2.1-6.39-3.87-8.41-6.68-1.11-1.54-3.68-.1-2.59,1.52,3.8,5.6,7.73,10.79,14.46,12.82,1.73.53,2.46-1.79,1.16-2.74-2.24-1.62-4.52-3.13-6.9-4.55a1.51,1.51,0,0,0-2.05,2c5.37,8.36,17.5,7,22.49,15.34l1.3-2.26c-6.32-.57-8.87-7.44-12.14-11.91l-2.35,1.82a48.39,48.39,0,0,0,14.54,11.47c1.06.55,2.7-.38,2.21-1.69-1.43-3.76-5.56-5.4-8.79-7.47v2.6c.82-.5,6.94,5,7.51,5.55,1.43,1.29,3.56-.82,2.12-2.12-2.29-2.06-7.81-8.05-11.14-6a1.53,1.53,0,0,0,0,2.6c2,1.3,6.49,3.25,7.4,5.67l2.21-1.7a46.43,46.43,0,0,1-13.94-11c-1.1-1.27-3.37.43-2.36,1.82,4.1,5.6,7,12.69,14.73,13.39a1.51,1.51,0,0,0,1.3-2.25c-5.17-8.64-17.24-7.17-22.5-15.34l-2,2c2.37,1.42,4.66,2.93,6.89,4.55l1.16-2.74c-5.89-1.78-9.36-6.58-12.67-11.45l-2.59,1.52a20.57,20.57,0,0,0,5.63,4.95,79.52,79.52,0,0,1,9.72,7.93c4.9,4.64,9.51,9.46,15.32,13,1.42.85,3.19-1.29,1.82-2.36-4.93-3.87-10.38-6.77-15.75-10a89.14,89.14,0,0,1-8.89-6.17c-1.74-1.34-8.84-5.06-8.23-7.63l-1.85,1.05c13.69,3.5,23.06,14.55,36.29,18.86,1.36.45,2.65-1.56,1.46-2.5a31,31,0,0,0-6.4-3.94l-1.15,2.75a18.42,18.42,0,0,0,5,.9c2.92-.05.7-.19-.51.42-2.87,1.45-3.33,5.68-5.57,7.73l1.82-.24c-3.5-1.89-7-5-10.33-7.22s-5.94-5.06-9.12-7.34c-3.81-2.73-7.73-5-11.41-7.93a81.66,81.66,0,0,0-9.7-6.29,1.5,1.5,0,0,0-1.52,2.59Z" transform="translate(-1476.68 -79.11)"/><path d="M1633.37,259.87c-.45,1.58,1.13,3.07,2.08,4.17a12.15,12.15,0,0,0,3.89,3.09c1.74.82,3.26-1.77,1.52-2.59a9.26,9.26,0,0,1-2.69-2c-.37-.39-.73-.8-1.06-1.22-.15-.18-.29-.37-.43-.56l-.32-.43c-.15-.28-.19-.18-.1.3a1.5,1.5,0,0,0-2.89-.8Z" transform="translate(-1476.68 -79.11)"/><path d="M1649.74,259.72a1.5,1.5,0,0,0,0-3,1.5,1.5,0,0,0,0,3Z" transform="translate(-1476.68 -79.11)"/><path d="M1494.38,265c4.74,1.14,10.36-3.45,14.76-4.65,6.55-1.78,13-2.58,19.39-5l-1.15-2.74c-5.94,4.16-15.27,6.31-22.32,7.59-2.69.49-5.87.66-8.32,2-2.29,1.26-2.44,3-3.22,5.36-.61,1.83,2.28,2.62,2.89.8,2-6,11.79-5.53,17-7.09,5-1.49,11.09-3,15.44-6.08,1.29-.9.55-3.39-1.15-2.74a103.66,103.66,0,0,1-16.79,4.39,35.19,35.19,0,0,0-6.72,2c-2.46,1-6.46,3.84-9,3.21-1.88-.45-2.68,2.44-.8,2.89Z" transform="translate(-1476.68 -79.11)"/><path d="M1495.09,272.82c.41-2,.31-4.58,1.68-6.28,1.2-1.49-.91-3.62-2.12-2.12-1.82,2.26-1.9,4.88-2.46,7.61-.38,1.88,2.51,2.69,2.9.79Z" transform="translate(-1476.68 -79.11)"/><path d="M1496.93,272.16c.73-2.66,1.37-5.49,3.18-7.67,1.22-1.47-.89-3.61-2.12-2.12-2.18,2.62-3.07,5.77-4,9a1.5,1.5,0,0,0,2.89.8Z" transform="translate(-1476.68 -79.11)"/><path d="M1499.06,270.7c.23-4,3.52-6.55,6.42-8.77,1.51-1.16,0-3.76-1.51-2.59-3.85,2.94-7.61,6.19-7.91,11.36-.11,1.93,2.89,1.92,3,0Z" transform="translate(-1476.68 -79.11)"/><path d="M1500.18,271a19.15,19.15,0,0,1,3.62-4.83,32.93,32.93,0,0,1,4.19-4.32c1.52-1.19-.62-3.3-2.12-2.12a36.33,36.33,0,0,0-4.63,4.81,20,20,0,0,0-3.65,4.94c-.76,1.76,1.83,3.29,2.59,1.52Z" transform="translate(-1476.68 -79.11)"/><path d="M1502.89,269.08c1-2.66,4.07-3.94,6.29-5.28a60.07,60.07,0,0,1,7-4c1.77-.76.25-3.35-1.51-2.59-3.29,1.42-6.28,3.56-9.37,5.36a12.24,12.24,0,0,0-5.29,5.75c-.69,1.81,2.21,2.59,2.89.8Z" transform="translate(-1476.68 -79.11)"/><path d="M1503.67,269c6-4,12.94-6.42,19.51-9.43,3-1.39,5.8-3.23,8.79-4.72,3.29-1.65,6.76-2.79,10-4.58,1.69-.93.18-3.52-1.51-2.59-3,1.65-6.18,2.76-9.25,4.21-3.27,1.54-6.25,3.59-9.54,5.09-6.57,3-13.48,5.39-19.51,9.43-1.6,1.06-.1,3.66,1.51,2.59Z" transform="translate(-1476.68 -79.11)"/><path d="M1538.17,289.13c2.07-4,2.9-8.24,3.57-12.67a1.51,1.51,0,0,0-2.9-.8l-2.84,7.5c-.69,1.82,2.19,2.55,2.9.79,2.83-7,5.78-14,7.64-21.4h-2.9c.24,1.18-2.62,5.1-3.1,6.22a24.7,24.7,0,0,0-1.79,6.29l3,.4c0-5.91,3.65-10.41,5.58-15.76,1.71-4.76,1.58-9.95,2.64-14.86a1.5,1.5,0,0,0-2.9-.79,138.92,138.92,0,0,0-5.9,21.21c-.37,1.89,2.52,2.7,2.89.8a138.25,138.25,0,0,1,5.91-21.22l-2.9-.79c-1.3,6.07-1.23,12.09-3.94,17.83-2.13,4.52-4.37,8.44-4.38,13.58,0,1.63,2.69,2.12,2.94.4a31.13,31.13,0,0,1,3.77-10.05c.79-1.51,1.46-2.36,1.13-4.06-.29-1.47-2.55-1.38-2.9,0-1.85,7.38-4.8,14.37-7.64,21.41l2.9.79,2.84-7.49-2.9-.8c-.62,4.18-1.3,8.16-3.26,11.95-.89,1.72,1.7,3.24,2.59,1.52Z" transform="translate(-1476.68 -79.11)"/><path d="M1539.31,289c4.27-4.71,5.13-10.54,6.29-16.58l-2.95-.4a43.75,43.75,0,0,1-1.1,5.17l.75,1.3-.53.17-1.84-1.05a18.15,18.15,0,0,1,.5,5c-.08,1.93,2.92,1.93,3,0a20.81,20.81,0,0,0-.61-5.83,1.51,1.51,0,0,0-1.85-1c-2.27.73-2.32,4.23.27,4.55,3.72.45,4.21-6,4.41-8.3.14-1.67-2.63-2.06-3-.4-1,5.43-1.65,11-5.51,15.26-1.29,1.43.82,3.55,2.12,2.12Z" transform="translate(-1476.68 -79.11)"/><path d="M1541.46,282a4,4,0,0,0-.45,1.07,1.5,1.5,0,0,0,2.89.8,1.49,1.49,0,0,1,.09-.3q-.06.18.06-.06a1.5,1.5,0,0,0-2.59-1.51Z" transform="translate(-1476.68 -79.11)"/><path d="M1544.66,283.14a94.09,94.09,0,0,0,4.54-18.64c.3-1.89-2.59-2.7-2.89-.8a94.45,94.45,0,0,1-4.54,18.64c-.67,1.82,2.22,2.6,2.89.8Z" transform="translate(-1476.68 -79.11)"/><path d="M1544.82,265.82c-1.55,3.37-4.08,6.2-4.11,10.1a1.5,1.5,0,0,0,3,0c0-3.24,2.41-5.78,3.7-8.59.81-1.74-1.78-3.27-2.59-1.51Z" transform="translate(-1476.68 -79.11)"/><path d="M1549,264.61c-1.51-4,.48-9.14,1.5-13.11a50,50,0,0,0,1.75-10.08c.08-1.72-2.48-2-3-.4-1.48,5.07-2.1,10.27-3.14,15.44-1,4.69-3.15,9.08-3.61,13.84-.16,1.71,2.51,2,3,.39,2.66-9.65,7.41-18.78,9.13-28.66l-3-.4c-.86,10.11-1.9,20.14-5.87,29.57h2.9c-1-6.39,1.46-12.18,4.08-17.86l-2.74-1.15a198.88,198.88,0,0,1-6.27,27.7,1.51,1.51,0,0,0,2.51,1.46c4.11-4.46,6.47-10.86,7.71-16.74.65-3.05.47-6.16.75-9.25a79.48,79.48,0,0,1,3-14l-2.9-.8c-2,10.71-2.53,21.56-4.83,32.27l2.94.4c.07-5.59,2.26-11,3.57-16.44s2.32-10.63,3.18-16l-2.89-.8c-1.35,9.61-3.37,19.11-4.57,28.75-.24,1.91,2.77,1.89,3,0,1.16-9.38,3.15-18.6,4.46-27.95.27-1.88-2.58-2.72-2.89-.8-1,6-2.13,11.9-3.62,17.76-1.3,5.13-3.18,10.14-3.24,15.48,0,1.66,2.59,2.08,3,.4,2.31-10.72,2.79-21.56,4.84-32.27.35-1.88-2.38-2.68-2.9-.8a87,87,0,0,0-3.24,18.37c-.39,6.87-2.63,15.09-7.4,20.27l2.5,1.46A199.2,199.2,0,0,0,1553,253c.23-1.52-2-2.85-2.74-1.16-3,6.54-5.57,12.85-4.39,20.17.27,1.65,2.4,1.17,2.9,0,4.07-9.68,5.09-20,6-30.37.14-1.67-2.66-2.07-3-.4-1.72,9.88-6.46,19-9.12,28.67l2.94.4c.48-5,2.91-9.81,3.83-14.76a136.19,136.19,0,0,1,2.82-13.72l-3-.4c-.36,7.37-5.88,16.71-3.14,24,.67,1.79,3.57,1,2.89-.79Z" transform="translate(-1476.68 -79.11)"/><path d="M1554.67,270.28v-.38a1.51,1.51,0,0,0-1.5-1.5,1.53,1.53,0,0,0-1.5,1.5v.38a1.5,1.5,0,0,0,3,0Z" transform="translate(-1476.68 -79.11)"/><path d="M1559.54,240.16c4.79-7.95,11.3-13.31,19.63-17.33l-1.82-2.35a45.06,45.06,0,0,1-8.81,6.21l2.2,1.7c.58-3,2.53-4.11,5.86-3.34l-.24-1.82c-.81,1.72-5.19,3-6.87,3.76a59,59,0,0,0-6.52,3.48,27.29,27.29,0,0,0-8.17,7.88c-.94,1.4,1.25,3.13,2.36,1.82a37.33,37.33,0,0,1,6.92-6c1.11-.81,5-3.71,4.93-3.73l-.9-2.21a31.2,31.2,0,0,1-9.43,12l2.56,1.06c.5-3.86,6.13-8.17,9-10.28l-2.06-2.06a38.41,38.41,0,0,1-8.82,9.39l1.82,2.35c3.3-4,7.15-8.09,12.08-10l-1.85-1.85c-.5,1.8-5.64,8.86-8.08,8.65l1.3,2.25c3-4.7,7.65-7.54,12.38-10.27l-1.81-2.36-2.88,2.12,1.46,2.5a22.2,22.2,0,0,1,6.58-5.81l-2.21-1.7c-1.64,4.27-8,6.37-11.28,9.22-2.93,2.54-4.66,6.09-7,9.15l2.59,1.52c2.9-4.36,8.48-7.52,12.57-10.7l-2.12-2.12c-3.81,4.15-9.63,11.9-15.33,13.25l1.85,1.84a11.5,11.5,0,0,1,3.25-5.64l-2.51-1.46a59.22,59.22,0,0,1-4,11l2.75,1.15a15,15,0,0,1,1.45-4.87l-2.8-.75c.21,3.89-1.45,7.38-2.44,11.07a1.51,1.51,0,0,0,2.9.8c1.07-4,2.77-7.65,2.54-11.87-.07-1.38-2.1-2.19-2.79-.76a18.53,18.53,0,0,0-1.76,5.58c-.22,1.52,1.94,2.84,2.75,1.16a64.55,64.55,0,0,0,4.29-11.75,1.51,1.51,0,0,0-2.51-1.46,15.7,15.7,0,0,0-4,7,1.51,1.51,0,0,0,1.84,1.84c6.38-1.51,12.48-9.48,16.65-14a1.5,1.5,0,0,0-2.12-2.12c-4.35,3.38-10,6.66-13,11.3-1.1,1.64,1.46,3,2.59,1.52,1.44-1.92,2.63-4,4.08-5.91,1.89-2.51,4.37-4,6.94-5.75,2.85-2,6.24-4.12,7.52-7.43.48-1.26-1.16-2.31-2.21-1.69a24.16,24.16,0,0,0-7.19,6.28c-.79,1-.12,3.12,1.46,2.51a9.5,9.5,0,0,0,4.21-2.89,1.51,1.51,0,0,0-1.82-2.36c-5.23,3-10.14,6.18-13.46,11.36a1.52,1.52,0,0,0,1.29,2.26c4.18.36,10-7.23,11-10.85.29-1-.75-2.27-1.84-1.84-5.44,2.14-9.73,6.34-13.4,10.8-1,1.2.35,3.47,1.82,2.36a43.37,43.37,0,0,0,9.9-10.46c.8-1.21-.84-2.94-2.06-2-4.13,3-9.81,7.47-10.51,12.87-.19,1.46,1.69,1.74,2.56,1.06a32.72,32.72,0,0,0,9.9-12.63,1.53,1.53,0,0,0-.9-2.21c-2.22-.51-4.27,1.92-5.91,3.09a47,47,0,0,0-8.86,7.47l2.36,1.82c3.17-4.72,7.85-7.52,12.87-9.94,2.56-1.22,7.37-2.39,8.69-5.19a1.56,1.56,0,0,0-.23-1.81c-4.64-5.32-9,.3-10.87,4.66-.55,1.29,1.17,2.25,2.2,1.69a47.56,47.56,0,0,0,9.42-6.68c1.34-1.2-.36-3.06-1.82-2.36-8.86,4.27-15.62,10-20.7,18.41a1.5,1.5,0,0,0,2.59,1.51Z" transform="translate(-1476.68 -79.11)"/><path d="M1555.33,268.48a120.75,120.75,0,0,0,4.78-11.74c1.39-4.26,1.39-9,3-13.1h-2.89l.64,2.88a1.5,1.5,0,0,0,2.5.67,149.41,149.41,0,0,1,10-11.21c3.16-3.18,6.66-5.4,10.15-8.11h-2.12c3.18,2.82,5.26,6.58,9,8.79a1.51,1.51,0,0,0,2-2.06,15,15,0,0,0-8.27-6.19c-3.47-.9-7.45,1.92-10.27,3.65-4,2.46-7.43,6.26-10.6,9.7-2.76,3-4.2,6.11-3.5,10.17a1.51,1.51,0,0,0,2.51.66c5.21-6.68,10.48-13.31,17.34-18.39l-1.82-2.36a107.58,107.58,0,0,0-13.19,15c-1,1.44,1.16,3,2.35,1.82,5.41-5.24,11.2-10,17-14.78,1.31-1.07-.41-3.3-1.82-2.35a37.14,37.14,0,0,0-13.55,15.86c-.79,1.75,1.8,3.27,2.59,1.51a34.41,34.41,0,0,1,12.47-14.78l-1.81-2.36c-5.83,4.76-11.62,9.54-17,14.78l2.36,1.82A102.58,102.58,0,0,1,1579.87,234c1.17-1.16-.41-3.4-1.81-2.36-7.09,5.25-12.57,11.94-18,18.86l2.5.66c-.94-5.49,7.33-12.62,11.4-15.54,2-1.42,5.56-4.08,8-4.33,2.83-.29,6.43,2.75,7.78,4.86l2-2.05c-3.47-2.06-5.41-5.69-8.38-8.33a1.56,1.56,0,0,0-2.12,0c-3.55,2.76-6.92,4.87-10.15,8.12a147.23,147.23,0,0,0-10,11.21l2.51.66-.64-2.89c-.35-1.57-2.41-1.27-2.89,0-1.38,3.64-1.34,7.68-2.44,11.44a101.47,101.47,0,0,1-5,12.68c-.79,1.75,1.8,3.28,2.59,1.52Z" transform="translate(-1476.68 -79.11)"/><path d="M1556.71,267.06c1.68-2.9,4-5.55,5.52-8.51,1.34-2.64,1.8-5.83,2.56-8.67.42-1.58-2-2.77-2.74-1.16l-.22.51c-.75,1.75,1.83,3.28,2.59,1.51l.22-.51-2.74-1.15c-.79,2.92-1.25,6.29-2.82,8.91s-3.44,4.93-5,7.56a1.5,1.5,0,0,0,2.59,1.51Z" transform="translate(-1476.68 -79.11)"/><path d="M1559.6,263.71a146.54,146.54,0,0,0,10.58-18.44c.8-1.74-1.79-3.27-2.59-1.51A147.78,147.78,0,0,1,1557,262.2c-1,1.63,1.55,3.14,2.59,1.51Z" transform="translate(-1476.68 -79.11)"/><path d="M1564.28,249.64c-1.34,2.31-2,5-3.51,7.16-1.11,1.59,1.49,3.09,2.6,1.52,1.54-2.2,2.16-4.86,3.5-7.17a1.5,1.5,0,0,0-2.59-1.51Z" transform="translate(-1476.68 -79.11)"/><path d="M1562.74,259.19A86,86,0,0,1,1573.5,245c1.29-1.43-.83-3.55-2.13-2.12a90.32,90.32,0,0,0-11.22,14.76,1.5,1.5,0,0,0,2.59,1.52Z" transform="translate(-1476.68 -79.11)"/><path d="M1566,251.33a17.54,17.54,0,0,1-3.59,3.66,1.51,1.51,0,0,0,0,2.12,1.54,1.54,0,0,0,2.13,0,20,20,0,0,0,4.05-4.27,1.51,1.51,0,0,0-.54-2.05,1.53,1.53,0,0,0-2,.54Z" transform="translate(-1476.68 -79.11)"/><path d="M1568.85,252.19q2.07-2.59,4.4-5c1.35-1.38-.77-3.5-2.12-2.12q-2.33,2.39-4.41,5a1.56,1.56,0,0,0,0,2.12,1.52,1.52,0,0,0,2.13,0Z" transform="translate(-1476.68 -79.11)"/><path d="M1571.1,247.67l1.46,2.81a1.5,1.5,0,1,0,2.59-1.51l-1.46-2.81a1.51,1.51,0,0,0-2-.54,1.53,1.53,0,0,0-.54,2Z" transform="translate(-1476.68 -79.11)"/><path d="M1571.42,250.21c3.63,3.29,7.54,6.43,10.52,10.34,1.2,1.57,2.21,3.29,3.45,4.83,1.64,2,4.7,3.47,5.47,6l2.2-1.69c-2.85-2-5.23-5-7.69-7.49s-4.68-4.59-6.81-7.08c-1.26-1.47-3.38.66-2.13,2.12,4.37,5.1,9.65,11.15,15.12,15a1.51,1.51,0,0,0,2.2-1.69,8.62,8.62,0,0,0-3.12-4.32,39.65,39.65,0,0,1-5.72-6.8c-3.17-4.37-7.39-7.81-11.37-11.42-1.43-1.29-3.56.83-2.12,2.12Z" transform="translate(-1476.68 -79.11)"/><path d="M1591.33,272l1.89.82c.92.77,2.64.35,2.56-1.06-.33-6.4-1.21-12.84-1.25-19.22,0-3.7-.66-7.31-.9-11-.18-3,.24-5.81-.79-8.65-.64-1.8-3.54-1-2.89.8,1.18,3.26.59,7.18.94,10.63a94,94,0,0,1,.62,9.77c0,5.86,1,11.79,1.27,17.66l2.56-1.06a4.93,4.93,0,0,0-3.21-1.59c-1.89-.37-2.69,2.52-.8,2.89Z" transform="translate(-1476.68 -79.11)"/><path d="M1583.06,231l-.6-.14.66,2.51a6,6,0,0,0,1.35-2.13,1.51,1.51,0,0,0-.69-1.7c-2.13-1.32-5.17-1.13-7.55-.88-1.38.14-2.16,2-.75,2.79,3.41,1.91,7.85,1.88,11.67,1.91l-.39-2.94-16.18,3.24.8,2.89a73,73,0,0,1,15.56-2.36l-.76-2.79a40.48,40.48,0,0,1-5.34,3c-1.54.71-.46,3.27,1.15,2.74a44.51,44.51,0,0,0,5.5-2.22l-2.2-1.7-.56,1.4a1.52,1.52,0,0,0,.54,2c1.85.8,1.75,1.51,2.68,3.74l2.89-.8-3.53-8.49-2.51,1.46a13.53,13.53,0,0,1,3.85,5.25l2.59-1.52-.77-2-2.89.79c1.49,5.75,1,12.3,1.55,18.22.54,5.26,1.31,10.5,2.23,15.71l1.84-1.84c-.11,0-1.2-6.75-1.38-7.64-.61-3-1.16-6.08-1.6-9.14a149.06,149.06,0,0,1-1.49-19h-3q2.07,17.24,3.45,34.55l2.79-.75c-4.15-9.69-4.25-21.73-5.25-32.09-.18-1.89-3.1-2-3,0,.29,5.5-.11,11,.2,16.52.3,5.26,2.06,10.19,2.55,15.41l2.79-.76c-4.4-8.22-5.93-18.5-6.51-27.69-.07-1.18-.12-2.36-.16-3.54a4.4,4.4,0,0,0-.73,3.66c-.14,1.73.07,3.57.09,5.31a124.59,124.59,0,0,1-.56,14.46l2.26-1.3c-.91-.63-1.53-8.23-1.78-9.76a77.12,77.12,0,0,1-1-13.23c0-1.94-2.91-1.92-3,0-.38,7.5-.54,14.89,2.22,22l1.05-1.85c-.27.09-2.17-7.64-2.26-8.27a68.89,68.89,0,0,1-.52-8.12h-3c.11,3-.28,6,0,8.91.27,2.76,1.34,5.32,1.88,8l2.5-1.46a16,16,0,0,1-3.85-11c0-2-2.86-1.9-3,0-.16,2.18-.74,7.16,1.74,8.46a1.52,1.52,0,0,0,2.2-.9l.61-1.72c.64-1.82-2.25-2.61-2.89-.79l-.61,1.72,2.2-.9c-.72-.38-.31-5-.25-5.87h-3a19.21,19.21,0,0,0,4.73,13.12c1.05,1.24,2.77-.13,2.51-1.46-.51-2.58-1.49-5-1.74-7.63-.26-2.83.08-5.67,0-8.51-.08-1.92-3-1.94-3,0,.14,5.91.05,14.49,4.56,19.08a1.49,1.49,0,0,0,1.46.39l.56-.18a1.51,1.51,0,0,0,1-1.85c-2.66-6.85-2.47-14-2.11-21.2h-3a83.24,83.24,0,0,0,1.43,15.83c.5,2.81.29,8,2.84,9.75,1,.72,2.15-.27,2.26-1.29.75-7.15,1.75-16.06.22-23.14-.41-1.94-2.19-4.49-4.29-2.47-1.38,1.32-.66,4.17-.57,5.72q.29,4.62,1,9.2c1,6.78,2.68,13.92,5.94,20,.68,1.26,2.94.75,2.8-.75-.49-5.23-2.23-10.15-2.55-15.41-.33-5.5.09-11-.2-16.52h-3c1,10.9,1.3,23.42,5.66,33.6.59,1.37,2.91.67,2.8-.76q-1.38-17.31-3.45-34.55c-.22-1.87-3-2-3,0a153.9,153.9,0,0,0,2.18,23.46c.67,3.95,1.43,7.92,2.43,11.81.39,1.53.43,2.9,2.07,3.39a1.51,1.51,0,0,0,1.84-1.85c-1.1-6.21-2-12.47-2.47-18.76-.41-5,0-10.3-1.31-15.16a1.5,1.5,0,0,0-2.89.79,9.26,9.26,0,0,0,1.07,2.77c.91,1.75,3.33.21,2.59-1.52a15.27,15.27,0,0,0-4.32-5.86c-1-.85-3.14-.06-2.5,1.46l3.53,8.5c.73,1.76,3.63,1,2.89-.8-1.07-2.57-1.59-4.47-4.06-5.53l.54,2.05a7.33,7.33,0,0,0,.86-2.11,1.51,1.51,0,0,0-2.2-1.69,25.77,25.77,0,0,1-4.79,1.92l1.16,2.74a39.85,39.85,0,0,0,5.34-3c1.17-.78.82-2.86-.75-2.8a76.67,76.67,0,0,0-16.36,2.47c-1.88.5-1.08,3.27.8,2.89l16.17-3.24c1.69-.34,1.26-2.93-.4-2.95-3.21,0-7.28.11-10.16-1.5l-.76,2.8c1.79-.19,4.46-.51,6,.47l-.69-1.69-.58.81a1.52,1.52,0,0,0,.66,2.51l.6.13c1.88.42,2.68-2.47.8-2.89Z" transform="translate(-1476.68 -79.11)"/><path d="M1649.76,324.14c-1,2.09-2,4.17-3,6.25-.83,1.72-1.56,4-3,5.29l2.35.3c.24.53.52.34.83-.58a3.16,3.16,0,0,1,1.66-1.1c1.84-.57,1.06-3.46-.8-2.9-2.24.69-5.65,3.49-4.28,6.1a1.52,1.52,0,0,0,2.36.3c1.44-1.35,2.19-3.33,3-5.07,1.15-2.35,2.25-4.71,3.36-7.08.81-1.74-1.77-3.26-2.59-1.51Z" transform="translate(-1476.68 -79.11)"/><path d="M1647.57,332a62.58,62.58,0,0,0-5.45,4.58c-2.56,2.21-5.6,3.32-8.29,5.27a16.79,16.79,0,0,0-6.29,9.71,1.51,1.51,0,0,0,1.85,1.84c2.51-.74,3.9-3.93,5.29-5.92,2.65-3.83,5.12-7.78,7.68-11.67,4.61-7,9.71-13.58,12.18-21.67.52-1.73-1.8-2.47-2.74-1.16-5.27,7.32-11,14.5-15.17,22.52-.76,1.45,1.15,3.13,2.35,1.82q6.76-7.41,13.07-15.18c1.21-1.48-.9-3.62-2.12-2.12q-6.32,7.78-13.07,15.18l2.36,1.81c4.18-8,9.9-15.19,15.17-22.52l-2.75-1.15c-2.11,6.94-6.3,12.69-10.32,18.63-2.08,3.09-4.08,6.24-6.13,9.35-1.3,2-4.41,8.55-6.6,9.19l1.85,1.85c1.13-5.05,4.46-7.68,8.7-10.08,3.75-2.12,6.42-5.28,9.94-7.69,1.58-1.09.08-3.69-1.51-2.59Z" transform="translate(-1476.68 -79.11)"/><path d="M1651.89,317.33c-1.15,1.66-2.34,3.3-3.58,4.9l2.56,1.06c-.28-2.14,2.47-4.88,3.68-6.41,1.39-1.75,2.85-3.44,4.3-5.13,1.26-1.46-.85-3.59-2.12-2.12-1.93,2.24-3.85,4.48-5.62,6.84-1.45,1.93-3.57,4.24-3.24,6.82.15,1.09,1.66,2.23,2.56,1.06,1.4-1.8,2.75-3.63,4-5.51,1.1-1.59-1.5-3.09-2.59-1.51Z" transform="translate(-1476.68 -79.11)"/><path d="M1655.59,316.6l.05-.17.54-.53c-.41.27,0,.34,1.06.2a.47.47,0,0,1,.19.37v-.1c0-.19,0-.22,0-.08a1.54,1.54,0,0,0-1-1.85,1.51,1.51,0,0,0-1.84,1.05,2.76,2.76,0,0,0,1,3.05,2,2,0,0,0,1.61.21,2.09,2.09,0,0,0,1.35-1.35,1.52,1.52,0,0,0-1-1.85,1.55,1.55,0,0,0-1.85,1.05Z" transform="translate(-1476.68 -79.11)"/><path d="M1656.81,309.19a87.69,87.69,0,0,1-9,6.06,1.5,1.5,0,0,0,1.51,2.59,93.07,93.07,0,0,0,9.59-6.53c1.52-1.18-.62-3.29-2.12-2.12Z" transform="translate(-1476.68 -79.11)"/><path d="M1647.49,318.64a6.53,6.53,0,0,0,3.4.6,1.54,1.54,0,0,0,1.5-1.5,1.5,1.5,0,0,0-1.5-1.5,3.67,3.67,0,0,1-1.89-.19,1.55,1.55,0,0,0-2,.54,1.51,1.51,0,0,0,.54,2.05Z" transform="translate(-1476.68 -79.11)"/><path d="M1654.12,314c.12.09,0,0-.06-.07s-.2-.17-.3-.27a4.88,4.88,0,0,1-.48-.53c.1.12,0,0,0-.07l-.18-.27c-.14-.23-.26-.46-.38-.7a1.5,1.5,0,1,0-2.59,1.52,8.37,8.37,0,0,0,2.53,3,1.51,1.51,0,0,0,2.05-.54,1.54,1.54,0,0,0-.54-2Z" transform="translate(-1476.68 -79.11)"/><path d="M1654,310.91a19.31,19.31,0,0,1,2.19-1c.38-.13.76-.25,1.14-.35l.39-.11c.55-.1.51-.13-.14-.08l-.89-.69c-.27-.42.11-.61-.22-.08-.09.16-.16.35-.26.52a4.89,4.89,0,0,1-1,1.12,12.1,12.1,0,0,1-2.78,1.73c-1.73.85-.21,3.44,1.52,2.6,2.38-1.17,5.16-3.05,5.59-5.88a1.82,1.82,0,0,0-2.23-2.22,18.5,18.5,0,0,0-4.81,1.8c-1.73.88-.21,3.47,1.51,2.59Z" transform="translate(-1476.68 -79.11)"/><path d="M1654.82,318.61a52.23,52.23,0,0,0,5.6-5.12c1.33-1.4-.79-3.53-2.12-2.12a52.13,52.13,0,0,1-5.6,5.11c-1.52,1.2.62,3.31,2.12,2.13Z" transform="translate(-1476.68 -79.11)"/><path d="M1656.94,312.89l-3.34,1.88,2.2.9c-.23-.78-1.92-5.45-1.32-5.95h-2.12l-.88-1.2.23,1.82c.57-1,7.28-.18,8.51-.1,3.36.24,6.69.77,10,1.29,1.89.29,2.7-2.6.79-2.9a101.21,101.21,0,0,0-13.78-1.53c-2.33,0-6.75-.71-8.12,1.72a1.54,1.54,0,0,0,.24,1.82c2,2.17,5.1,1.54,5.86-1.24a1.51,1.51,0,0,0-.39-1.46l-.35-.34a1.53,1.53,0,0,0-2.12,0c-2.21,1.84-.07,6.84.55,8.87a1.51,1.51,0,0,0,2.2.89l3.34-1.88a1.5,1.5,0,0,0-1.51-2.59Z" transform="translate(-1476.68 -79.11)"/><path d="M1655.55,323.64c-4.31,3.14-8.48,6.52-10.2,11.76-.6,1.84,2.29,2.63,2.89.8,1.46-4.43,5.19-7.32,8.82-10,1.55-1.13,0-3.73-1.51-2.6Z" transform="translate(-1476.68 -79.11)"/><path d="M1680.63,324.23c-1-.62-.76-6-.84-7a43.13,43.13,0,0,1-.27-6.72l-2.56,1.06c1.4,1.31,1,4.59.83,6.36-.15,1.92,2.85,1.91,3,0,.21-2.66.43-6.49-1.71-8.48a1.52,1.52,0,0,0-2.56,1.06c-.26,3.54.3,7.17.6,10.7.18,2.11,0,4.36,2,5.61,1.63,1,3.14-1.56,1.52-2.59Z" transform="translate(-1476.68 -79.11)"/><path d="M1676.86,317.69l1.06.49.47.23.19.1a1,1,0,0,1-.24-1.21l.54-.54-.09.07a1.55,1.55,0,0,0-.54,2.05,1.51,1.51,0,0,0,2,.54,2,2,0,0,0,.93-1.57,2.11,2.11,0,0,0-.6-1.52,7.36,7.36,0,0,0-2.25-1.23,1.5,1.5,0,0,0-1.52,2.59Z" transform="translate(-1476.68 -79.11)"/><path d="M1676.86,321.52l-.48,3.06a1.55,1.55,0,0,0,1,1.84,1.52,1.52,0,0,0,1.85-1l.47-3.06a1.56,1.56,0,0,0-1-1.85,1.51,1.51,0,0,0-1.84,1Z" transform="translate(-1476.68 -79.11)"/><path d="M1676.54,326.27a2.12,2.12,0,0,0,2.84.75,1.5,1.5,0,0,0-1.52-2.59.93.93,0,0,1,1.27.33,1.5,1.5,0,0,0-2.59,1.51Z" transform="translate(-1476.68 -79.11)"/><path d="M1683.17,324.38q2.65-3.66,5.47-7.18c1.2-1.49-.91-3.63-2.12-2.12q-3.06,3.82-5.94,7.79c-1.13,1.56,1.47,3.06,2.59,1.51Z" transform="translate(-1476.68 -79.11)"/><path d="M1689.45,315.51a1.5,1.5,0,0,0,0-3,1.5,1.5,0,0,0,0,3Z" transform="translate(-1476.68 -79.11)"/><path d="M1687,310.61a7,7,0,0,1-1.3,2,1.55,1.55,0,0,0,0,2.13,1.53,1.53,0,0,0,2.12,0,9.73,9.73,0,0,0,1.77-2.6,1.55,1.55,0,0,0-.54-2.06,1.52,1.52,0,0,0-2,.54Z" transform="translate(-1476.68 -79.11)"/><path d="M1684,314.51a7.56,7.56,0,0,1-1.79,2.33,1.5,1.5,0,0,0,2.12,2.12,10.14,10.14,0,0,0,2.26-2.94,1.53,1.53,0,0,0-.54-2,1.51,1.51,0,0,0-2,.54Z" transform="translate(-1476.68 -79.11)"/><path d="M1677.68,322.35l-.25.43a1.5,1.5,0,1,0,2.59,1.51l.25-.42a1.5,1.5,0,0,0-2.59-1.52Z" transform="translate(-1476.68 -79.11)"/><path d="M1677.7,326.06a1.5,1.5,0,0,0,0-3,1.5,1.5,0,0,0,0,3Z" transform="translate(-1476.68 -79.11)"/><path d="M1675.23,320.36a1.5,1.5,0,0,0,0-3,1.5,1.5,0,0,0,0,3Z" transform="translate(-1476.68 -79.11)"/><path d="M1637.62,335.56a9.28,9.28,0,0,1-1.41,1.38,1.51,1.51,0,0,0,0,2.12,1.54,1.54,0,0,0,2.12,0,10.38,10.38,0,0,0,1.88-2,1.51,1.51,0,0,0-.54-2.06,1.54,1.54,0,0,0-2.05.54Z" transform="translate(-1476.68 -79.11)"/><path d="M1632.59,340.66l-.45.84a1.5,1.5,0,1,0,2.59,1.51l.45-.83a1.5,1.5,0,1,0-2.59-1.52Z" transform="translate(-1476.68 -79.11)"/><path d="M1634.27,343.18a82.2,82.2,0,0,0,5.73-7.41c1.06-1.62-1.54-3.13-2.59-1.51a73.5,73.5,0,0,1-5.27,6.8c-1.21,1.48.9,3.62,2.13,2.12Z" transform="translate(-1476.68 -79.11)"/><path d="M1641.21,334a27,27,0,0,0,2.47-4.34,1.56,1.56,0,0,0-.54-2.06,1.52,1.52,0,0,0-2.05.54,26.55,26.55,0,0,1-2.47,4.34,1.5,1.5,0,0,0,.54,2,1.53,1.53,0,0,0,2-.53Z" transform="translate(-1476.68 -79.11)"/><path d="M1645.8,325.64a70.34,70.34,0,0,1,3-8.59c.75-1.78-2.15-2.55-2.89-.8a70.34,70.34,0,0,0-3,8.59,1.5,1.5,0,0,0,2.89.8Z" transform="translate(-1476.68 -79.11)"/><path d="M1649.37,315.6l.17-.43a1.5,1.5,0,0,0-1-1.84,1.54,1.54,0,0,0-1.85,1l-.17.43a1.51,1.51,0,0,0,1,1.85,1.56,1.56,0,0,0,1.85-1Z" transform="translate(-1476.68 -79.11)"/><path d="M1649,315.71l.51-.26a1.51,1.51,0,0,0,.54-2.05,1.54,1.54,0,0,0-2-.54l-.51.26a1.5,1.5,0,1,0,1.51,2.59Z" transform="translate(-1476.68 -79.11)"/><path d="M1649.09,314.33c-.25-.51,0-.68-.29-.2a5.09,5.09,0,0,1-.31.45,6.21,6.21,0,0,1-.77.77,1.5,1.5,0,1,0,2.13,2.12c1.26-1.11,2.69-2.92,1.83-4.65a1.51,1.51,0,0,0-2-.54,1.53,1.53,0,0,0-.54,2.05Z" transform="translate(-1476.68 -79.11)"/><path d="M1643.28,320.69c-1.87,2.86-3.85,5.62-5,8.87-.64,1.83,2.25,2.61,2.89.8,1-3,3-5.53,4.69-8.16,1.06-1.62-1.53-3.13-2.59-1.51Z" transform="translate(-1476.68 -79.11)"/><path d="M1637.36,331.39l-1.78,4a1.54,1.54,0,0,0,.54,2.05,1.52,1.52,0,0,0,2.05-.54l1.78-4a1.54,1.54,0,0,0-.53-2,1.51,1.51,0,0,0-2.06.54Z" transform="translate(-1476.68 -79.11)"/><path d="M1631.48,342.12a16.44,16.44,0,0,1-1.34,2.81,1.5,1.5,0,0,0,2.59,1.51,20.63,20.63,0,0,0,1.65-3.53,1.51,1.51,0,0,0-1.05-1.84,1.54,1.54,0,0,0-1.85,1.05Z" transform="translate(-1476.68 -79.11)"/><path d="M1628.75,347.55l-.68,1.27a1.5,1.5,0,1,0,2.59,1.52l.68-1.28a1.53,1.53,0,0,0-.54-2.05,1.51,1.51,0,0,0-2,.54Z" transform="translate(-1476.68 -79.11)"/><path d="M1627.39,350.36l-.25.51a1.5,1.5,0,1,0,2.59,1.51l.25-.51a1.54,1.54,0,0,0-.54-2.05,1.51,1.51,0,0,0-2,.54Z" transform="translate(-1476.68 -79.11)"/><path d="M1629.84,352.44q3.26-3.69,6.17-7.64c1.15-1.55-1.45-3.05-2.59-1.51-1.8,2.42-3.71,4.76-5.7,7-1.28,1.44.84,3.57,2.12,2.12Z" transform="translate(-1476.68 -79.11)"/><path d="M1640.1,339.39a62,62,0,0,1,7.94-10c1.34-1.38-.77-3.51-2.12-2.12a66.3,66.3,0,0,0-8.41,10.63c-1,1.64,1.55,3.14,2.59,1.52Z" transform="translate(-1476.68 -79.11)"/><path d="M1652.48,325c3-2.45,4.14-6.23,6.72-9,1.33-1.4-.79-3.53-2.12-2.12-2.58,2.75-3.78,6.57-6.72,9-1.49,1.23.64,3.34,2.12,2.12Z" transform="translate(-1476.68 -79.11)"/><path d="M1661.11,311a12,12,0,0,1-4.25,2.83,1.54,1.54,0,0,0-1,1.85,1.5,1.5,0,0,0,1.84,1,15.37,15.37,0,0,0,5.58-3.6c1.36-1.37-.76-3.5-2.12-2.12Z" transform="translate(-1476.68 -79.11)"/><path d="M1651.63,319.54a14.41,14.41,0,0,1-2.64,3.29c-1.41,1.32.71,3.43,2.12,2.12a17.22,17.22,0,0,0,3.11-3.9,1.5,1.5,0,0,0-2.59-1.51Z" transform="translate(-1476.68 -79.11)"/><path d="M1646.56,326.62a76,76,0,0,1-4,7.21c-1,1.63,1.55,3.14,2.59,1.51a76,76,0,0,0,4.05-7.21c.85-1.72-1.74-3.24-2.59-1.51Z" transform="translate(-1476.68 -79.11)"/><path d="M1639.11,336.43l-1.09.87a1.5,1.5,0,0,0,0,2.12,1.53,1.53,0,0,0,2.12,0l1.09-.87a1.51,1.51,0,0,0,0-2.12,1.54,1.54,0,0,0-2.12,0Z" transform="translate(-1476.68 -79.11)"/><path d="M1637.4,341.36c7.2-8.38,21-16.43,22.63-28.26.15-1.12-1-2.56-2.2-1.7-3.59,2.6-6.12,6.51-9.23,9.64-3.92,3.95-8.15,7.56-12.37,11.17l2.56,1.06a15.63,15.63,0,0,1,0-3.35c.12-1.93-2.88-1.92-3,0a15.63,15.63,0,0,0,0,3.35,1.52,1.52,0,0,0,2.56,1.06c3.78-3.23,7.56-6.46,11.13-9.93,3.33-3.25,6.1-7.69,9.86-10.41l-2.2-1.69c-.82,6.08-5.65,10.71-9.79,14.89s-8.35,7.72-12.07,12.05c-1.25,1.46.86,3.59,2.12,2.12Z" transform="translate(-1476.68 -79.11)"/><path d="M1644.76,310.09c-.52,4.05-2.65,8.32-4.13,12.09-1.62,4.13-3.35,8.22-5.14,12.28l2.74.36-.26-1.21c-.4-1.89-3.29-1.09-2.89.8l.25,1.21a1.52,1.52,0,0,0,2.75.36c3.57-8.06,8.56-17.11,9.68-25.89.25-1.91-2.75-1.9-3,0Z" transform="translate(-1476.68 -79.11)"/><path d="M1644.5,311.62c-.59,5.58-3.45,11.37-5.41,16.6q-3.25,8.7-6.93,17.24c-.75,1.75,1.83,3.28,2.59,1.51,2.54-5.93,5-11.91,7.24-18,2.08-5.56,4.89-11.46,5.51-17.4.2-1.92-2.8-1.9-3,0Z" transform="translate(-1476.68 -79.11)"/><path d="M1674.82,313.75a59.78,59.78,0,0,1-.41,9.27l2.95-.39c-.78-2.81-.32-6.21-.35-9.12h-3c.25,4.51.75,9,1.26,13.49.18,1.51,2.7,2.23,3,.4a90.75,90.75,0,0,1,2.9-13.45l-2.95-.4a50.76,50.76,0,0,1-2.05,10.65l2.89.8c.42-1.58.88-3.15,1.42-4.69s1.06-3.89,2.22-5.15l-1.82.23c.56.25.35,4.22.3,5a19.16,19.16,0,0,1-1.17,5.11l3,.4a23.93,23.93,0,0,1,.87-5.32,1.51,1.51,0,0,0-2.9-.8,28.19,28.19,0,0,0-1,6.12c-.09,1.78,2.4,1.91,2.95.4a21.21,21.21,0,0,0,1.28-8.27c-.1-1.64,0-4.41-1.79-5.19a1.56,1.56,0,0,0-1.82.24c-2.44,2.65-3.52,7.78-4.41,11.16a1.5,1.5,0,0,0,2.89.8,54.45,54.45,0,0,0,2.16-11.45c.15-1.73-2.48-2-2.94-.4a89.63,89.63,0,0,0-2.9,13.46l2.94.39c-.51-4.49-1-9-1.26-13.49-.1-1.91-3-1.94-3,0,0,3.19-.4,6.81.45,9.91.48,1.75,2.75,1.19,3-.4a59.78,59.78,0,0,0,.41-9.27c-.06-1.92-3.06-1.93-3,0Z" transform="translate(-1476.68 -79.11)"/><path d="M1646.87,321.35l-.13.77a1.5,1.5,0,0,0,2.89.8l.13-.78a1.53,1.53,0,0,0-1-1.84,1.51,1.51,0,0,0-1.84,1.05Z" transform="translate(-1476.68 -79.11)"/><path d="M1647.86,322.23c0-.3-.06.46,0,.16,0,.1,0,.21-.08.31,0-.11,0-.09,0,.08a1.5,1.5,0,1,0,2.59,1.51,4.25,4.25,0,0,0,.44-2.86,1.51,1.51,0,0,0-1.84-1.05,1.55,1.55,0,0,0-1.05,1.85Z" transform="translate(-1476.68 -79.11)"/><path d="M1648.08,325.05c2.17,1,4.21-.18,6.22-1.05l-1.82-2.36a6.37,6.37,0,0,1-2.19,1.66c-1.75.82-.23,3.41,1.51,2.59a8.35,8.35,0,0,0,2.8-2.13,1.51,1.51,0,0,0-1.82-2.35c-.69.3-2.43,1.41-3.19,1-1.74-.82-3.26,1.77-1.51,2.59Z" transform="translate(-1476.68 -79.11)"/><path d="M1648.54,321.33a87.13,87.13,0,0,1-7.94,9.92q-2.11,2.26-4.4,4.38c-.67.62-1.36,1.24-2,1.84-.33.28-3.25,2.77-1.4,1.45,1.65-1.18,2.91-3.13,4.46-4.58s3.17-2.79,4.8-4.13a93.85,93.85,0,0,0,9.41-8.41l-2.5-1.45a20.34,20.34,0,0,1-2.14,6.42c-.91,1.7,1.67,3.22,2.59,1.52a22.28,22.28,0,0,0,2.44-7.15c.22-1.36-1.39-2.65-2.51-1.46-4.5,4.81-10,8.44-14.72,13-2.07,2-6.92,6.77-4.23,9.78a1.46,1.46,0,0,0,1.46.38c3.74-1.55,7.2-5.61,10-8.48a90.15,90.15,0,0,0,9.36-11.53c1.1-1.59-1.5-3.09-2.59-1.51Z" transform="translate(-1476.68 -79.11)"/><path d="M1645,310.84a165.12,165.12,0,0,1-8.13,17.17l2.79.76c.14-5.43,5.39-11.55,8-16.13l-2.74-1.15c-2.32,10-7.81,19.7-12.56,28.76l2.74.36c-1-3.12,1.94-9.34,3-12.19,1.48-4,3.23-7.87,5-11.74l-2.8-.75c.39,3.19-.43,5.75-1.85,8.62-.26.54-2,4.47-2.35,4.51l1.5,1.5c0-8.95,3.53-17.62,7.18-25.66l-2.8-.76c.08,4.24-1.09,8.05-2.45,12l2.94.4c-.24-3.43,3.61-8.19,5.53-10.64l-2.56-1.06a43,43,0,0,1-3,20.92h2.89c-.83-4.89,1.08-10.11,3.2-14.42.85-1.73-1.74-3.25-2.59-1.52-2.55,5.19-4.49,10.92-3.5,16.73.28,1.64,2.41,1.2,2.89,0a44.63,44.63,0,0,0,3.06-21.71c-.11-1.12-1.67-2.2-2.56-1.06-2.61,3.34-6.73,8.26-6.41,12.76a1.51,1.51,0,0,0,3,.4c1.46-4.24,2.64-8.31,2.56-12.82,0-1.38-2.15-2.18-2.79-.76-3.88,8.56-7.58,17.65-7.59,27.18a1.5,1.5,0,0,0,1.5,1.5c2.31-.25,3.18-2.74,4.2-4.59,2-3.67,3.52-7.31,3-11.54-.15-1.29-2.09-2.28-2.79-.76-2.14,4.63-4.24,9.28-5.92,14.1-1.21,3.47-3.57,8.44-2.4,12.13a1.52,1.52,0,0,0,2.74.36c4.85-9.27,10.48-19.21,12.86-29.48a1.5,1.5,0,0,0-2.74-1.15c-3.07,5.27-8.3,11.33-8.46,17.64a1.52,1.52,0,0,0,2.8.76,172.52,172.52,0,0,0,8.43-17.89c.73-1.79-2.17-2.57-2.89-.8Z" transform="translate(-1476.68 -79.11)"/><path d="M1715.7,326.89a19,19,0,0,0,.94,7c.61,1.82,3.51,1,2.9-.8a16.66,16.66,0,0,1-.84-6.23c.1-1.93-2.9-1.92-3,0Z" transform="translate(-1476.68 -79.11)"/><path d="M1713.86,301.75a13.68,13.68,0,0,1-.68,3.87l2.51-.66c-2.33-2-3.23-7.51-3.87-10.49-.5-2.32-.38-4.86-1-7.12-.94-3.66-.12,1.66-.07,2.67.31,6.12-2.42,11.56.76,17.35.92,1.69,3.52.18,2.59-1.52-2.88-5.23,0-11-.37-16.5-.22-2.82-.93-5.91-4-6.25a1.49,1.49,0,0,0-1.3.74c-1.87,2.76-.17,8.35.48,11.42.75,3.5,1.82,9.33,4.65,11.82a1.51,1.51,0,0,0,2.5-.66,23.87,23.87,0,0,0,.79-4.67c.15-1.93-2.85-1.92-3,0Z" transform="translate(-1476.68 -79.11)"/><path d="M1706.56,294.28c2.55,1.81-.36,8.57-2.52,7-1.94-1.39-.75-5.68-.17-7.46a1.52,1.52,0,0,0-2.21-1.69c-10,6.92-22,7.58-33.79,7.47l1.06,2.56c2.42-2.75,8.94-3.41,12.42-4.14a102.19,102.19,0,0,1,13.71-1.86l-.76-2.79a16.21,16.21,0,0,1-6.48,2.61l1.15,2.74a64,64,0,0,1,12.43-5.08l-1.16-2.75a75.06,75.06,0,0,1-13.49,7.22c-1.77.72-1,3.63.79,2.89a78.91,78.91,0,0,0,14.22-7.52c1.36-.91.55-3.24-1.16-2.74a68.37,68.37,0,0,0-13.14,5.39c-1.59.85-.43,3,1.15,2.74a17.73,17.73,0,0,0,7.2-2.91c1.14-.77.84-2.91-.75-2.8a105.76,105.76,0,0,0-16.24,2.35c-3.78.86-9.31,1.45-12,4.53a1.52,1.52,0,0,0,1.06,2.56c12.32.12,24.86-.67,35.31-7.88L1701,293c-1,3.07-1.63,13.63,4.29,11.84,5.14-1.56,7.24-10.06,2.81-13.19-1.58-1.11-3.08,1.49-1.51,2.59Z" transform="translate(-1476.68 -79.11)"/><path d="M1721.1,286.43a4.72,4.72,0,0,0-3,.42c-.86.39-1.66,1-2.66.95l.76,2.79a10.91,10.91,0,0,1,5.72-.86l-1.06-2.56a1.23,1.23,0,0,1-.95.37,4.87,4.87,0,0,1-.54,0c-.54-.14-.63.08-.25.66.31-1.89-2.58-2.7-2.89-.8-.6,3.68,4.84,4,6.75,1.88a1.52,1.52,0,0,0-1.06-2.56,13.85,13.85,0,0,0-7.23,1.27c-1.51.69-.54,2.66.75,2.8a4.89,4.89,0,0,0,2.65-.58c.62-.3,1.5-1,2.23-.89,1.89.36,2.7-2.53.8-2.9Z" transform="translate(-1476.68 -79.11)"/><path d="M1626.55,349.89a1.5,1.5,0,0,0,0-3,1.5,1.5,0,0,0,0,3Z" transform="translate(-1476.68 -79.11)"/><path d="M1662.81,316a1.5,1.5,0,0,0,0-3,1.5,1.5,0,0,0,0,3Z" transform="translate(-1476.68 -79.11)"/><path d="M1655.79,311.17q-.78,3.19-4.42.39l-2.89-.8a23,23,0,0,1-5.14,10h2.12c-2.19-2.31,0-9.38,1-11.69a17.75,17.75,0,0,1,8.38-8.59,1.53,1.53,0,0,0,.31-2.36c-2.57-3.23-10.82-1.89-14.43-1.76a46.71,46.71,0,0,0-16.9,3.57c-1.45.62-.6,2.76.76,2.79l26.66.7,12.83.33,4,.1-2.64.64c-1.82-.47-4.09-4.92-5-6.32-1.06-1.61-3.66-.11-2.59,1.51,2.15,3.27,6.34,10.59,11.22,9,2.59-.83,5-5.11,2.8-7.24-1.41-1.37-5-.63-6.74-.67l-12.83-.34-27.65-.72.76,2.8a41.69,41.69,0,0,1,14.5-3.13c2.73-.13,11.45-1.33,13.19.85l.3-2.35a20.83,20.83,0,0,0-10.29,11.54c-1.26,3.59-2.66,10.36.26,13.45a1.51,1.51,0,0,0,2.12,0,26.23,26.23,0,0,0,5.91-11.33,1.5,1.5,0,0,0-2.89-.8c-1,2.72-.23,5.69,2.82,6.6,3.55,1.07,5.71-1.83,7.08-4.68.84-1.73-1.75-3.25-2.59-1.51Z" transform="translate(-1476.68 -79.11)"/><path d="M1620.42,366.05h0a1.5,1.5,0,0,0,0,3h0a1.5,1.5,0,0,0,0-3Z" transform="translate(-1476.68 -79.11)"/><path d="M1805.06,155.25a1.5,1.5,0,0,0,0-3,1.5,1.5,0,0,0,0,3Z" transform="translate(-1476.68 -79.11)"/><path d="M1805,155a1.5,1.5,0,0,0,0-3,1.5,1.5,0,0,0,0,3Z" transform="translate(-1476.68 -79.11)"/><path d="M1805.09,154.87a1.5,1.5,0,0,0,0-3,1.5,1.5,0,0,0,0,3Z" transform="translate(-1476.68 -79.11)"/><path d="M1572.3,179.27a.5.5,0,0,0,0-1,.5.5,0,0,0,0,1Z" transform="translate(-1476.68 -79.11)"/><path d="M1572.68,178.44l0-.09c-.29-.57-1.15-.07-.86.51l0,.08c.29.58,1.15.07.86-.5Z" transform="translate(-1476.68 -79.11)"/><path d="M1572.44,178.54v0l-.13.48a1.21,1.21,0,0,0,.16-.16c.39-.51-.31-1.22-.71-.71-.18.24-.34.36-.27.69.11.63,1.08.37,1-.27Z" transform="translate(-1476.68 -79.11)"/><path d="M1572.23,179a1.33,1.33,0,0,0,.19-.14c.51-.41-.21-1.11-.7-.71h0a.5.5,0,0,0,.51.86Z" transform="translate(-1476.68 -79.11)"/><path d="M1572.32,178.91a1.79,1.79,0,0,1,.26-.2c.5-.38,0-1.25-.51-.87a3.24,3.24,0,0,0-.46.37c-.44.46.27,1.17.71.7Z" transform="translate(-1476.68 -79.11)"/><path d="M1572,178.63s0,.1.06.15c.23.59,1.2.33,1-.27a2.1,2.1,0,0,0-.32-.59c-.4-.5-1.11.21-.71.71Z" transform="translate(-1476.68 -79.11)"/><path d="M1572.67,179.08a.5.5,0,0,0,0-1,.5.5,0,0,0,0,1Z" transform="translate(-1476.68 -79.11)"/><path d="M1572.72,179.14a.5.5,0,0,0,0-1,.5.5,0,0,0,0,1Z" transform="translate(-1476.68 -79.11)"/><path d="M1573.06,178.28a1.35,1.35,0,0,1-.15-.26l-.86.51.21.31c0,.06.1.25.09.1.05.64,1.05.65,1,0a1.76,1.76,0,0,0-.44-.92.5.5,0,0,0-.86.51,2,2,0,0,0,.3.45c.4.5,1.1-.21.71-.7Z" transform="translate(-1476.68 -79.11)"/></g></svg>