<svg id="Шар_1" data-name="Шар 1" xmlns="http://www.w3.org/2000/svg" width="422.45mm" height="373.5mm"
     viewBox="0 0 1197.5 1058.74">
    <defs>
        <style>
            .cls-1,.cls-3,.cls-4
            {fill:#fff;}
            .cls-2{fill:#003a27;}
            .cls-3{stroke:#000;}
            .cls-4{
                font-size:49.71px;
                font-family: Arsenal, sans-serif;
                font-weight: 700;
            }
            tspan {
                letter-spacing: 5px;
            }
        </style>
    </defs>
    <title>тло монтсерат</title>
    <g id="Шар_5" data-name="Шар 5">
        <g id="Шар_4" data-name="Шар 4">
            <path class="cls-1"
                  d="M75.75,963.19S57.06,1031.91,100,1069.83c27.67,24.42,61.16,44.49,96.05,44.66,162.3.79,412.17-49,519.13-229C842.4,671.55,694.07,164,663.38,89.73c-2.74-6.62-92.9,15.59-92.9,15.59"
                  transform="translate(-33.42 -64.09)"/>
            <path class="cls-1"
                  d="M692.43,103.86s-44-.26-70.4,12.61c-18.42,9-37.24,20.75-48.13,34.59C459.94,296,193.36,713.91,297.62,881.4c139.61,224.26,744.31,193.08,891.13,175.51,21-2.51,4.32-86.52,4.32-86.52"
                  transform="translate(-33.42 -64.09)"/>
            <path class="cls-1"
                  d="M136.72,1122.59s-25.43-30.32-19-35.2C178,1041.48,539.07,790.12,832.17,779.33c88.64-3.26,236.91,125.14,314.2,211.76,35.19,39.43-14.27,131.5-14.27,131.5"
                  transform="translate(-33.42 -64.09)"/>
            <path class="cls-1"
                  d="M570.48,105.32S577.19,90.45,591,80c11.36-8.55,26.06-15.84,40.62-16,14-.1,28,6.35,39,14.15a72,72,0,0,1,21.76,25.62"
                  transform="translate(-33.42 -64.09)"/>
            <path class="cls-1"
                  d="M75.75,963.19s-9.91,16.42-21.28,36A229.1,229.1,0,0,0,39.12,1030c-3.39,8.66-5.61,17.15-5.7,24.79a59.08,59.08,0,0,0,.85,11,75.21,75.21,0,0,0,4,14,69.69,69.69,0,0,0,7.28,13.72,67,67,0,0,0,18.21,17.78c7.64,5.1,16.88,7.93,26.15,9.39a153.24,153.24,0,0,0,21.1,1.76c14.23.23,25.73.13,25.73.13"
                  transform="translate(-33.42 -64.09)"/>
            <path class="cls-1"
                  d="M1188.88,963.08s9.9,16.42,21.22,36.06a229,229,0,0,1,15.23,31c3.35,8.71,5.54,17.25,5.59,24.93a58.9,58.9,0,0,1-.9,11.09,75,75,0,0,1-4,14.1,70.87,70.87,0,0,1-7.33,13.81,67.71,67.71,0,0,1-18.28,17.87c-8.13,5.44-18,8.31-27.86,9.69a136.27,136.27,0,0,1-19.2,1.23c-14-.07-25.42-.24-25.42-.24"
                  transform="translate(-33.42 -64.09)"/>
        </g>
        <g id="Шар_2" data-name="Шар 2">
            <path d="M107.81,955.85s-17.64,64.85,22.91,100.62c26.12,23,57.72,42,90.64,42.15,153.15.75,388.92-46.26,489.85-216.06,120-201.9-20-680.81-48.92-750.9-2.58-6.25-87.65,14.71-87.65,14.71"
                  transform="translate(-33.42 -64.09)"/>
            <path d="M689.7,145a69,69,0,0,0-20.38-1.66c-14.25,1.2-34,4.09-48.33,11.07-17.38,8.48-35.13,19.59-45.4,32.65C468.11,323.83,217.21,718.91,315.91,877.3c132.17,212.08,703.52,183.5,842.11,167,19.8-2.36,4.09-81.61,4.09-81.61"
                  transform="translate(-33.42 -64.09)"/>
            <path d="M165.34,1106.26s-24-28.61-18-33.22c56.86-43.31,397.61-280.5,674.18-290.68,83.64-3.08,223.55,118.08,296.48,199.82,33.21,37.2-13.47,124.08-13.47,124.08"
                  transform="translate(-33.42 -64.09)"/>
            <path d="M574.64,146.37s6.33-14,19.36-23.85c10.72-8.08,24.59-15,38.33-15.06,13.24-.09,26.43,6,36.85,13.35A67.88,67.88,0,0,1,689.7,145"
                  transform="translate(-33.42 -64.09)"/>
            <path d="M107.81,955.85s-9.35,15.5-20.09,33.95a218.05,218.05,0,0,0-14.48,29.07c-3.19,8.17-5.29,16.18-5.37,23.39a55,55,0,0,0,.8,10.39,71,71,0,0,0,3.75,13.24,65.9,65.9,0,0,0,6.87,12.95,63.17,63.17,0,0,0,17.18,16.77c7.22,4.82,15.93,7.49,24.68,8.86a145,145,0,0,0,19.91,1.67c13.42.21,24.28.12,24.28.12"
                  transform="translate(-33.42 -64.09)"/>
            <path d="M1158.15,955.75s9.35,15.5,20,34a215.57,215.57,0,0,1,14.37,29.22c3.16,8.21,5.23,16.27,5.27,23.53A55.6,55.6,0,0,1,1197,1053a70.1,70.1,0,0,1-3.81,13.31,66.21,66.21,0,0,1-6.92,13,63.76,63.76,0,0,1-17.25,16.86c-7.66,5.14-17,7.84-26.28,9.14a126.68,126.68,0,0,1-18.12,1.16c-13.19-.06-24-.22-24-.22"
                  transform="translate(-33.42 -64.09)"/>
        </g>
        <g id="Шар_3" data-name="Шар 3">
            <path class="cls-2"
                  d="M263.47,891.8s-12.41,45.61,16.11,70.77c18.37,16.21,40.6,29.53,63.75,29.65,107.72.52,273.55-32.54,344.53-152,84.41-142-14-478.84-34.4-528.14-1.82-4.39-61.65,10.35-61.65,10.35"
                  transform="translate(-33.42 -64.09)"/>
            <path class="cls-2"
                  d="M672.74,321.49s-29.21-.17-46.72,8.37c-12.23,6-24.72,13.77-31.94,22.95C518.44,449,341.52,726.36,410.72,837.52c92.65,148.84,494,128.14,591.42,116.48,13.92-1.67,2.86-57.42,2.86-57.42"
                  transform="translate(-33.42 -64.09)"/>
            <path class="cls-2"
                  d="M303.93,997.59s-16.88-20.12-12.63-23.36c40-30.47,279.66-197.29,474.18-204.45,58.83-2.16,157.23,83.05,208.53,140.54,23.35,26.17-9.48,87.27-9.48,87.27"
                  transform="translate(-33.42 -64.09)"/>
            <path class="cls-2"
                  d="M591.81,325a48.58,48.58,0,0,1,13.62-16.78c7.53-5.68,17.29-10.52,27-10.59,9.31-.06,18.58,4.22,25.91,9.39a47.77,47.77,0,0,1,14.44,17"
                  transform="translate(-33.42 -64.09)"/>
            <path class="cls-2"
                  d="M263.47,891.8s-6.58,10.9-14.13,23.88a151.54,151.54,0,0,0-10.18,20.45c-2.25,5.74-3.73,11.38-3.78,16.45a39.07,39.07,0,0,0,.56,7.31,49.11,49.11,0,0,0,2.64,9.31,46.08,46.08,0,0,0,4.83,9.11A44.33,44.33,0,0,0,255.5,990.1c5.07,3.39,11.2,5.27,17.35,6.24a102.3,102.3,0,0,0,14,1.17c9.45.15,17.08.08,17.08.08"
                  transform="translate(-33.42 -64.09)"/>
            <path class="cls-2"
                  d="M1002.22,891.73s6.57,10.9,14.08,23.93a151.22,151.22,0,0,1,10.11,20.56c2.22,5.78,3.68,11.44,3.71,16.54a39.42,39.42,0,0,1-.59,7.36,49.69,49.69,0,0,1-2.68,9.36,46.88,46.88,0,0,1-4.87,9.16,44.91,44.91,0,0,1-12.13,11.87c-5.39,3.61-12,5.51-18.48,6.42a89.27,89.27,0,0,1-12.75.82c-9.28,0-16.87-.16-16.87-.16"
                  transform="translate(-33.42 -64.09)"/>
        </g>
        <circle class="cls-3" cx="598.75" cy="149.32" r="57.53"/>
        <circle class="cls-3" cx="1071.16" cy="958.89" r="57.53"/>
        <circle class="cls-3" cx="131.92" cy="959.19" r="57.53"/>
        <text class="cls-4" transform="matrix(0.5, 0.86, -0.86, 0.5, 656.28, 228.41)">
            <tspan>КАРПАТСЬКІ</tspan>
            <tspan>ВІДЧАЙДУХИ</tspan>
        </text>
        <text class="cls-4" transform="translate(167.31 871.33) rotate(-59.56)">
            <tspan>КАРПАТСЬКІ</tspan>
            <tspan>ВІДЧАЙДУХИ</tspan>
        </text>
        <text class="cls-4" transform="translate(236.23 997.44) rotate(-0.22)">
            <tspan>КАРПАТСЬКІ</tspan>
            <tspan>ВІДЧАЙДУХИ</tspan>
        </text>
    </g>
</svg>