<svg id="Шар_1" data-name="Шар 1" xmlns="http://www.w3.org/2000/svg" width="206.44mm" height="206.44mm" viewBox="0 0 585.19 585.19"><defs><style>.cls-1,.cls-3{fill:#fff;}.cls-2{fill:#003a27;}.cls-3{stroke:#103e35;stroke-miterlimit:10;stroke-width:14px;}</style></defs><title>титюб</title><circle class="cls-1" cx="292.6" cy="292.6" r="292.6"/><circle class="cls-2" cx="292.6" cy="292.6" r="272.41"/><path class="cls-3" d="M176,244.24a48.88,48.88,0,0,1,12.44-9.75,51.39,51.39,0,0,1,8.93-3.77,93.81,93.81,0,0,1,21-4.4c50.75-4.2,78.64-3.7,78.64-3.7,17.6.31,43.26.49,75.32-.26,0,0,59,1.28,83.23,3.58s33.32,5.87,38.43,9.7,15.19,13.79,17.36,21.83,7.45,36.81,8.13,61.49.17,66.89-1.87,86.64-4.77,37.27-12.09,46.8-17.7,17.37-38.64,19.24-79.66,5.27-116.59,5.1-113.71-1.7-135.49-4.59-31.49-8-38.47-16.51S164.57,441,161,401.68a687,687,0,0,1-2-78.13s3.94-56.41,8.17-65.7A51.36,51.36,0,0,1,176,244.24ZM302.28,402.87l94-53.31-94-53.92Z" transform="translate(-46.8 -57.16)"/></svg>